<?xml version="1.0" encoding="UTF-8"?>
<svg width="160px" height="56px" viewBox="0 0 160 56" version="1.1" xmlns="http://www.w3.org/2000/svg" xmlns:xlink="http://www.w3.org/1999/xlink">
    <!-- Generator: Sketch 41.2 (35397) - http://www.bohemiancoding.com/sketch -->
    <title>aber-header-logo-white</title>
    <desc>Created with Sketch.</desc>
    <defs>
        <linearGradient x1="50%" y1="100%" x2="50%" y2="3.061617e-15%" id="linearGradient-1">
            <stop stop-color="#C4EEFF" offset="0%"></stop>
            <stop stop-color="#FFFFFF" offset="100%"></stop>
        </linearGradient>
    </defs>
    <g id="Symbols" stroke="none" stroke-width="1" fill="none" fill-rule="evenodd">
        <g id="Group-3" transform="translate(25.000000, 11.000000)" fill="url(#linearGradient-1)">
            <path d="M31.4219204,22.7096774 L31.4219204,1.63135294 C31.4219204,0.955152907 31.0034259,0.348991477 30.3701245,0.10763543 C29.736823,-0.133720617 29.019115,0.0391084522 28.5662514,0.54298329 L0.417441817,31.8683781 C-0.185533959,32.5395393 -0.128420578,33.5709711 0.544304281,34.1720938 C0.856658874,34.4512405 1.2468494,34.5882944 1.63602907,34.5882944 C2.08535469,34.5882944 2.53215317,34.4053879 2.85562718,34.0456212 L28.1487678,5.89816506 L28.1487678,22.7096774 L18.6468856,22.7096774 C17.7431801,22.7096774 17.0103093,23.4402959 17.0103093,24.3412241 C17.0103093,25.2421524 17.7431801,25.9727709 18.6468856,25.9727709 L28.1487678,25.9727709 L28.1487678,32.9567477 C28.1487678,33.8576759 28.8811332,34.5882944 29.7848387,34.5882944 C30.6885442,34.5882944 31.4219204,33.8576759 31.4219204,32.9567477 L31.4219204,25.9727709 L33.0485551,25.9727709 C33.9522607,25.9727709 34.684626,25.2421524 34.684626,24.3412241 C34.684626,23.4402959 33.9522607,22.7096774 33.0485551,22.7096774 L31.4219204,22.7096774 Z M87.8216379,34.5884882 C86.9179324,34.5884882 86.185567,33.8578697 86.185567,32.9569415 L86.185567,1.63154672 C86.185567,0.730618514 86.9179324,0 87.8216379,0 L96.9289476,0 C102.284464,0 106.64176,4.34440885 106.64176,9.6839705 C106.64176,15.0235322 102.284464,19.3674371 96.9289476,19.3674371 L96.0045196,19.3674371 C95.1003086,19.3674371 94.3679432,18.6373225 94.3679432,17.7358904 C94.3679432,16.8349622 95.1003086,16.1043437 96.0045196,16.1043437 L96.9289476,16.1043437 C100.47958,16.1043437 103.369113,13.2241951 103.369113,9.6839705 C103.369113,6.14374589 100.47958,3.26359732 96.9289476,3.26359732 L89.4582142,3.26359732 L89.4582142,32.9569415 C89.4582142,33.8578697 88.7258489,34.5884882 87.8216379,34.5884882 Z M107.241,34.1633247 C106.7103,34.1633247 106.189709,33.9063485 105.874828,33.4316984 L98.9317612,22.9707529 C98.4329037,22.2189717 98.6396238,21.207191 99.3937226,20.7098665 C100.146305,20.2125421 101.162721,20.4186269 101.661073,21.1699043 L108.60414,31.6313536 C109.103503,32.382631 108.896277,33.3949156 108.142684,33.89224 C107.864698,34.0756505 107.551333,34.1633247 107.241,34.1633247 Z M48.7980314,34.3773647 L41.3278034,34.3773647 C40.4240979,34.3773647 39.6907216,33.6467461 39.6907216,32.7458179 L39.6907216,1.63154672 C39.6907216,0.730618514 40.4240979,0 41.3278034,0 C42.2315089,0 42.9643797,0.730618514 42.9643797,1.63154672 L42.9643797,31.1142712 L48.7980314,31.1142712 C52.3491695,31.1142712 55.2381968,28.2341226 55.2381968,24.693898 C55.2381968,21.1531696 52.3491695,18.273021 48.7980314,18.273021 L47.8741087,18.273021 C46.9704032,18.273021 46.2375324,17.5424025 46.2375324,16.6414743 C46.2375324,15.740546 46.9704032,15.0099275 47.8741087,15.0099275 L48.7980314,15.0099275 C54.1540534,15.0099275 58.5113494,19.3543364 58.5113494,24.693898 C58.5113494,30.0329558 54.1540534,34.3773647 48.7980314,34.3773647 Z M65.141731,12.073345 C64.2380254,12.073345 63.5051546,11.3427265 63.5051546,10.4417983 L63.5051546,1.63154672 C63.5051546,0.730618514 64.2380254,0 65.141731,0 L80.5254474,0 C81.4291529,0 82.1620237,0.730618514 82.1620237,1.63154672 C82.1620237,2.53247493 81.4291529,3.26309345 80.5254474,3.26309345 L66.7778019,3.26309345 L66.7778019,10.4417983 C66.7778019,11.3427265 66.0454365,12.073345 65.141731,12.073345 Z M80.5254474,34.7825185 L65.141731,34.7825185 C64.2380254,34.7825185 63.5051546,34.0519 63.5051546,33.1509718 L63.5051546,24.3407203 C63.5051546,23.4397921 64.2380254,22.7096774 65.141731,22.7096774 C66.0459419,22.7096774 66.7783073,23.4397921 66.7783073,24.3407203 L66.7783073,31.5194251 L80.5254474,31.5194251 C81.4291529,31.5194251 82.1620237,32.2500436 82.1620237,33.1509718 C82.1620237,34.0519 81.4291529,34.7825185 80.5254474,34.7825185 Z M79.5434005,18.0243838 L65.141731,18.0243838 C64.2380254,18.0243838 63.5051546,17.2937653 63.5051546,16.392837 C63.5051546,15.4919088 64.2380254,14.7612903 65.141731,14.7612903 L79.5434005,14.7612903 C80.447106,14.7612903 81.1794714,15.4919088 81.1794714,16.392837 C81.1794714,17.2937653 80.447106,18.0243838 79.5434005,18.0243838 Z" id="Combined-Shape"></path>
        </g>
    </g>
</svg>