<?xml version="1.0" encoding="UTF-8"?>
<svg width="384px" height="384px" viewBox="0 0 384 384" version="1.1" xmlns="http://www.w3.org/2000/svg" xmlns:xlink="http://www.w3.org/1999/xlink">
    <!-- Generator: Sketch 41.2 (35397) - http://www.bohemiancoding.com/sketch -->
    <title>aber-logo-big</title>
    <desc>Created with Sketch.</desc>
    <defs>
        <polygon id="path-1" points="192.030925 383.460938 383.398553 383.460938 383.398553 0 192.030925 0 0.663296543 0 0.663296543 383.460938"></polygon>
        <linearGradient x1="50%" y1="-2.48949813e-15%" x2="50%" y2="100%" id="linearGradient-3">
            <stop stop-color="#FFFFFF" offset="0%"></stop>
            <stop stop-color="#FFFFFF" offset="100%"></stop>
        </linearGradient>
    </defs>
    <g id="Symbols" stroke="none" stroke-width="1" fill="none" fill-rule="evenodd">
        <g id="aber-logo-big">
            <g id="Page-1">
                <mask id="mask-2" fill="white">
                    <use xlink:href="#path-1"></use>
                </mask>
                <g id="Clip-2"></g>
                <path d="M192.031262,383.460938 C86.3405051,383.460938 0.663296543,297.619744 0.663296543,191.730469 C0.663296543,85.8411938 86.3405051,0 192.031262,0 C297.722019,0 383.399228,85.8411938 383.399228,191.730469 C383.399228,297.619744 297.722019,383.460938 192.031262,383.460938 Z" id="Fill-1" fill="#63BDFF" mask="url(#mask-2)"></path>
                <g id="Group-2" mask="url(#mask-2)" fill="url(#linearGradient-3)">
                    <g transform="translate(27.000000, 130.000000)">
                        <path d="M90.9983793,68.1727652 L90.9983793,5.22804001 C90.9983793,3.25169802 89.7864162,1.48005911 87.9523705,0.774643448 C86.1183248,0.0692277888 84.0398373,0.574358417 82.7283409,2.04704246 L1.20918207,93.602337 C-0.537040192,95.5639522 -0.371639424,98.5785364 1.5765767,100.335448 C2.48115789,101.151315 3.61115251,101.551886 4.73821969,101.551886 C6.03946998,101.551886 7.33340165,101.017301 8.27018475,99.9658048 L81.5193052,17.6987285 L81.5193052,68.1727652 L54.0304295,68.1727652 C51.4132917,68.1727652 49.2908925,70.3081571 49.2908925,72.9413162 C49.2908925,75.5744753 51.4132917,77.7098671 54.0304295,77.7098671 L81.5193052,77.7098671 L81.5193052,96.7833346 C81.5193052,99.4164937 83.6402407,101.551886 86.2573786,101.551886 C88.8745164,101.551886 90.9983793,99.4164937 90.9983793,96.7833346 L90.9983793,77.7098671 L95.73777,77.7098671 C98.3549078,77.7098671 100.475843,75.5744753 100.475843,72.9413162 C100.475843,70.3081571 98.3549078,68.1727652 95.73777,68.1727652 L90.9983793,68.1727652 Z" id="Combined-Shape"></path>
                        <path d="M254.98358,101.551886 C252.366442,101.551886 250.245507,99.4164937 250.245507,96.7833346 L250.245507,5.22804001 C250.245507,2.59488093 252.366442,0.459489061 254.98358,0.459489061 L281.358416,0.459489061 C296.868031,0.459489061 309.486792,13.1569709 309.486792,28.7630038 C309.486792,44.3690366 296.868031,57.0650458 281.358416,57.0650458 L278.681265,57.0650458 C276.062664,57.0650458 273.941728,54.9311266 273.941728,52.2964949 C273.941728,49.6633358 276.062664,47.5279439 278.681265,47.5279439 L281.358416,47.5279439 C291.641074,47.5279439 300.009182,39.1100819 300.009182,28.7630038 C300.009182,18.4159257 291.641074,9.99806364 281.358416,9.99806364 L259.723117,9.99806364 L259.723117,96.7833346 C259.723117,99.4164937 257.602181,101.551886 254.98358,101.551886 Z M310.540673,101.581339 C309.003763,101.581339 307.496128,100.83027 306.584228,99.443002 L286.477057,68.8686084 C285.032362,66.6713638 285.631025,63.7142143 287.8149,62.2606751 C289.994385,60.807136 292.937933,61.4094637 294.381164,63.6052357 L314.488336,94.1811019 C315.934495,96.3768738 315.334368,99.335496 313.151956,100.789035 C312.346908,101.325092 311.439399,101.581339 310.540673,101.581339 Z" id="Combined-Shape"></path>
                        <path d="M140.121236,100.935567 L118.487401,100.935567 C115.870264,100.935567 113.746401,98.8001754 113.746401,96.1670163 L113.746401,5.22877635 C113.746401,2.59561727 115.870264,0.460225403 118.487401,0.460225403 C121.104539,0.460225403 123.226938,2.59561727 123.226938,5.22877635 L123.226938,91.3984654 L140.121236,91.3984654 C150.405358,91.3984654 158.772003,82.9806033 158.772003,72.6335252 C158.772003,62.2849744 150.405358,53.8671124 140.121236,53.8671124 L137.44555,53.8671124 C134.828412,53.8671124 132.706013,51.7317205 132.706013,49.0985614 C132.706013,46.4654024 134.828412,44.3300105 137.44555,44.3300105 L140.121236,44.3300105 C155.632315,44.3300105 168.251077,57.0274924 168.251077,72.6335252 C168.251077,88.2380854 155.632315,100.935567 140.121236,100.935567" id="Fill-8"></path>
                        <path d="M186.736003,35.7470606 C184.118865,35.7470606 181.996466,33.6116687 181.996466,30.9785097 L181.996466,5.22862908 C181.996466,2.59547 184.118865,0.460078135 186.736003,0.460078135 L231.287358,0.460078135 C233.904496,0.460078135 236.026895,2.59547 236.026895,5.22862908 C236.026895,7.86178816 233.904496,9.99718003 231.287358,9.99718003 L191.474076,9.99718003 L191.474076,30.9785097 C191.474076,33.6116687 189.353141,35.7470606 186.736003,35.7470606 Z M231.286627,101.551886 L186.735271,101.551886 C184.118133,101.551886 181.995734,99.4164937 181.995734,96.7833346 L181.995734,71.033454 C181.995734,68.4002949 184.118133,66.2663757 186.735271,66.2663757 C189.353873,66.2663757 191.474808,68.4002949 191.474808,71.033454 L191.474808,92.0147836 L231.286627,92.0147836 C233.903764,92.0147836 236.026164,94.1501755 236.026164,96.7833346 C236.026164,99.4164937 233.903764,101.551886 231.286627,101.551886 Z M229.391251,54.8206753 L187.68391,54.8206753 C185.066773,54.8206753 182.944373,52.6852834 182.944373,50.0521244 C182.944373,47.4189653 185.066773,45.2835734 187.68391,45.2835734 L229.391251,45.2835734 C232.008389,45.2835734 234.129324,47.4189653 234.129324,50.0521244 C234.129324,52.6852834 232.008389,54.8206753 229.391251,54.8206753 Z" id="Combined-Shape"></path>
                    </g>
                </g>
            </g>
        </g>
    </g>
</svg>