<?xml version="1.0" encoding="UTF-8"?>
<svg width="342px" height="31px" viewBox="0 0 342 31" version="1.1" xmlns="http://www.w3.org/2000/svg" xmlns:xlink="http://www.w3.org/1999/xlink">
    <!-- Generator: Sketch 41.2 (35397) - http://www.bohemiancoding.com/sketch -->
    <title>aber-txt</title>
    <desc>Created with Sketch.</desc>
    <defs></defs>
    <g id="Symbols" stroke="none" stroke-width="1" fill="none" fill-rule="evenodd">
        <g id="aber-txt" fill="#FFFFFF">
            <g id="Group">
                <path d="M21.4037385,8.57148915 C22.0007302,8.41272612 22.4529966,8.36248466 22.7625478,8.42277441 C23.070089,8.48306417 23.3032575,8.68202037 23.4640633,9.01964301 C23.622859,9.35927531 23.6188389,9.65871443 23.4499928,9.91595073 C23.2811467,10.1751967 22.9072731,10.3842012 22.3283721,10.5429642 C22.0710828,10.603254 21.8117834,10.6575147 21.5524839,10.7077562 C21.2931845,10.755988 21.0198146,10.8122585 20.7303641,10.8725482 C20.4409136,10.9308283 20.1233221,10.9911181 19.7735694,11.0514078 C19.4278369,11.1096879 19.0218021,11.1699777 18.5655156,11.2302674 C17.9886247,11.3086441 17.5142475,11.2905572 17.1464041,11.1699777 C16.7765507,11.0514078 16.5433822,10.7921619 16.4448887,10.3942495 C16.3845865,10.0546172 16.4649894,9.7913519 16.6820773,9.60244399 C16.9031853,9.41353609 17.3695222,9.27888896 18.0891283,9.19850262 C18.6841099,9.14022252 19.2630109,9.05581686 19.8198011,8.94528564 C20.3765913,8.83676408 20.9052405,8.71216525 21.4037385,8.57148915 L21.4037385,8.57148915 Z M23.37361,12.4240046 C23.952511,12.5847773 24.3143241,12.7736852 24.4650796,12.992738 C24.6158351,13.2117908 24.6098048,13.5112299 24.4510091,13.8890457 C24.2922133,14.246765 24.0409542,14.4557694 23.703262,14.5160592 C23.3655697,14.5743393 22.8751119,14.5261075 22.2399289,14.3653348 C21.3816277,14.1864752 20.5916691,14.0377605 19.8640227,13.9171809 C19.1383864,13.7986111 18.3866191,13.6981282 17.6087209,13.6197515 C17.03183,13.5393651 16.6539362,13.4006987 16.4750398,13.2017425 C16.2941332,13.0027863 16.2458914,12.7435403 16.3262944,12.4240046 C16.4227779,12.0461888 16.6237852,11.7969912 16.923286,11.6784213 C17.2207768,11.5578418 17.6871137,11.5397549 18.3263169,11.6181315 C18.824815,11.6784213 19.2871318,11.7326821 19.7152773,11.7829235 C20.1434228,11.833165 20.5514676,11.8874258 20.9414218,11.9477155 C21.3293659,12.0059956 21.7173099,12.0763337 22.105254,12.15672 C22.4931981,12.2350967 22.9173235,12.3255314 23.37361,12.4240046 L23.37361,12.4240046 Z M19.9383954,24.9984383 C19.4398973,24.5402362 19.1685375,24.152372 19.1182856,23.8328363 C19.0680338,23.5153103 19.2429102,23.1173979 19.6409046,22.6390991 L19.7313579,22.5486645 L12.3523802,22.5486645 C11.5161899,23.246016 10.7242211,23.8589619 9.97647402,24.3854924 C9.2287269,24.912023 8.58751364,25.3963507 8.0488141,25.8344563 C7.75132331,26.0736056 7.57242682,26.2122721 7.51212463,26.2524653 C7.45383251,26.2926584 7.6407693,26.312755 8.08097526,26.312755 C9.01565917,26.2524653 10.0106453,26.2022238 11.0659335,26.1620306 C12.1232319,26.1218374 13.1986209,26.0836539 14.2941106,26.0434608 C15.3896004,26.0032676 16.4649894,25.9630744 17.5182676,25.9248909 C18.575566,25.8846977 19.570552,25.8445046 20.507246,25.8043114 C20.4067424,25.7038285 20.312269,25.565162 20.2238257,25.3863024 C20.1333725,25.2074428 20.038899,25.0667667 19.9383954,24.9682934 L19.9383954,24.9984383 Z M6.76638758,8.48306417 C6.98548553,8.52325734 7.25282522,8.56746983 7.57242682,8.61570164 C7.89001834,8.6659431 8.21766022,8.72623286 8.55736255,8.79657091 C8.89505479,8.8648993 9.23877726,8.94126632 9.58852995,9.01964301 C9.93627257,9.10002935 10.2598943,9.16835774 10.5593952,9.2286475 C10.9573896,9.32913043 11.2066386,9.48789346 11.3071423,9.70694624 C11.4056359,9.92599902 11.3774948,10.2354864 11.216689,10.6313892 C11.0980947,10.9308283 10.913168,11.1358135 10.663919,11.244335 C10.4146699,11.3548663 10.002605,11.3307504 9.42370397,11.1699777 C9.18651537,11.1096879 8.90510516,11.0514078 8.58751364,10.9911181 C8.26992212,10.9308283 7.94027016,10.8665192 7.60257791,10.7961812 C7.26287559,10.7278528 6.93121356,10.6635437 6.6015616,10.603254 C6.27391971,10.5429642 5.97843899,10.4947324 5.71913959,10.4545392 C5.14224866,10.3540563 4.77842546,10.179216 4.62968007,9.93001834 C4.48093467,9.68283034 4.46485409,9.38942019 4.58545846,9.04978789 C4.74425422,8.65187549 4.97340254,8.42277441 5.2729034,8.36248466 C5.57039419,8.3021949 6.06889228,8.34238807 6.76638758,8.48306417 L6.76638758,8.48306417 Z M9.66290265,11.7969912 C10.3985893,11.6382281 10.9071378,11.598035 11.1865379,11.6784213 C11.4659381,11.756798 11.6950864,11.9577638 11.8739829,12.2752899 L11.8739829,12.3054348 C11.9744865,12.6430574 11.9282548,12.9364676 11.739308,13.1856652 C11.5503611,13.4348629 11.1865379,13.6297998 10.6478384,13.7684662 C10.1312496,13.8689491 9.65285228,13.9634031 9.21666646,14.0518281 C8.77847057,14.1422627 8.35434518,14.222649 7.94630038,14.2909774 L6.7201559,14.4999819 C6.3121111,14.57032 5.87793535,14.6346291 5.4216488,14.6949188 C4.68596211,14.7933921 4.18344388,14.7652569 3.91409411,14.6044842 C3.64474434,14.4457211 3.47991836,14.1382434 3.42162625,13.6800412 C3.37941471,13.3605055 3.47991836,13.1173368 3.71911704,12.9465159 C3.95831571,12.7777045 4.41661234,12.6531057 5.09400691,12.574729 C5.67089784,12.5144393 6.36437299,12.415966 7.16840216,12.2752899 C7.9744414,12.1366235 8.80661159,11.9758508 9.66290265,11.7969912 L9.66290265,11.7969912 Z M26.2419841,17.0241131 C26.2419841,17.5627016 26.1193696,17.9063532 25.8701206,18.0550679 C25.6208715,18.2037827 25.1565447,18.27814 24.4791501,18.27814 L3.80756025,18.27814 C3.15227648,18.27814 2.68794963,18.1836861 2.42060993,17.9947782 C2.15126016,17.8058703 2.0145752,17.4421221 2.0145752,16.9035336 C2.0145752,16.3870513 2.15126016,16.0233031 2.42060993,15.8142986 C2.68794963,15.6052941 3.15227648,15.5007919 3.80756025,15.5007919 L24.4791501,15.5007919 C25.1565447,15.5007919 25.6208715,15.6253907 25.8701206,15.8745884 C26.1193696,16.1237861 26.2419841,16.5056212 26.2419841,17.0241131 L26.2419841,17.0241131 Z M28.0349691,7.10845771 C28.1736641,7.68723938 28.1837145,8.28812729 28.0631101,8.91514076 C27.9445158,9.54215424 27.6168739,10.3339597 27.0781744,11.2905572 C26.7605829,11.8874258 26.3867093,12.2411257 25.9585638,12.3496473 C25.5304182,12.4601785 25.0882022,12.3456279 24.6278955,12.0059956 C24.2299011,11.7487593 24.0228636,11.4533395 24.0027628,11.1257652 C23.980652,10.7961812 24.1314075,10.344008 24.4510091,9.767236 C24.6902078,9.34922701 24.8228726,9.03371062 24.8530237,8.82470613 C24.8831748,8.61570164 24.917346,8.40267783 24.9595575,8.18362504 C24.9776482,8.00476543 24.8871949,7.91433079 24.6902078,7.91433079 L15.6388494,7.91433079 L15.6388494,12.7837335 C15.6388494,13.3806021 15.5222652,13.828756 15.295127,14.1261854 C15.0659786,14.4256246 14.6699943,14.5743393 14.1152142,14.5743393 C13.478021,14.5743393 13.0538957,14.4256246 12.8448481,14.1261854 C12.6358005,13.828756 12.5312767,13.3806021 12.5312767,12.7837335 L12.5312767,7.91433079 L4.31610869,7.91433079 C4.05680929,7.91433079 3.92816462,8.02486202 3.92816462,8.2439148 L3.92816462,10.7821136 C3.92816462,11.3006055 3.77740915,11.6723923 3.47991836,11.9014934 C3.18242757,12.1305945 2.80252379,12.245145 2.34623724,12.245145 C1.32914034,12.245145 0.822601966,11.756798 0.822601966,10.7821136 L0.822601966,8.06505519 C0.822601966,7.34760708 1.02561933,6.74069019 1.43366413,6.24229486 C1.84170893,5.74389954 2.52312365,5.49671153 3.47991836,5.49671153 L12.5312767,5.49671153 L12.5312767,4.57025893 L4.91310035,4.57025893 C4.37641088,4.57025893 3.94625528,4.49992088 3.62866376,4.36125444 C3.31107224,4.22057834 3.15227648,3.86285912 3.15227648,3.28608711 C3.15227648,2.74749861 3.31107224,2.3937987 3.62866376,2.22498738 C3.94625528,2.05617606 4.37641088,1.9717704 4.91310035,1.9717704 L23.5243655,1.9717704 C24.1012564,1.9717704 24.5535228,2.04009879 24.8831748,2.18077489 C25.2128267,2.31944133 25.3776527,2.65907363 25.3776527,3.19565247 C25.3776527,3.79453072 25.2128267,4.17234654 24.8831748,4.33110956 C24.5535228,4.48987259 24.1012564,4.57025893 23.5243655,4.57025893 L15.6388494,4.57025893 L15.6388494,5.49671153 L25.1083029,5.49671153 C26.0027854,5.49671153 26.6761598,5.59920412 27.1244061,5.80820861 C27.5706423,6.0172131 27.8761733,6.45129935 28.0349691,7.10845771 L28.0349691,7.10845771 Z M1.7773866,22.5486645 C1.09999203,22.5486645 0.637675258,22.4501912 0.388426216,22.251235 C0.139177175,22.0522788 0.0145526538,21.674463 0.0145526538,21.1157779 C0.0145526538,20.5791991 0.139177175,20.2254992 0.388426216,20.0546782 C0.637675258,19.8858669 1.09999203,19.8014612 1.7773866,19.8014612 L26.3907295,19.8014612 C27.068124,19.8014612 27.5324509,19.8858669 27.7816999,20.0546782 C28.0289389,20.2254992 28.1535634,20.5791991 28.1535634,21.1157779 C28.1535634,21.674463 28.0289389,22.0522788 27.7816999,22.251235 C27.5324509,22.4501912 27.068124,22.5486645 26.3907295,22.5486645 L21.6730883,22.5486645 C21.9102769,22.6873309 22.1193245,22.8481036 22.298221,23.0269632 C22.7163162,23.4248756 23.1062703,23.7946528 23.4640633,24.1322755 C23.8218563,24.4698981 24.1615586,24.7994821 24.4791501,25.1170082 C24.7967416,25.4365439 25.1183533,25.7540699 25.4359448,26.0736056 C25.7535363,26.3911317 26.0932387,26.7408123 26.4530417,27.1186281 C26.9696305,27.6753035 27.2369701,28.1736988 27.2570709,28.6118044 C27.2771716,29.04991 26.9595801,29.4478224 26.3022862,29.8055416 C25.9022817,30.0245944 25.5163477,30.0647876 25.136444,29.9261211 C24.7585502,29.7874547 24.3505054,29.4880156 23.9123095,29.0298134 C23.8118059,28.9112435 23.7173325,28.7946833 23.6268792,28.6861618 C23.538436,28.5776402 23.4459726,28.473138 23.345469,28.372655 L5.78145185,29.208673 C4.70405277,29.2488662 3.92816462,29.120248 3.44976727,28.8208089 C2.97136991,28.5213698 2.73418131,28.1033608 2.73418131,27.566782 C2.73418131,27.2271497 2.81860437,26.8794787 2.9874505,26.5217595 C3.15629662,26.1620306 3.47991836,25.8143597 3.95831571,25.476737 C4.6940024,24.9582451 5.3472761,24.4759271 5.91411666,24.0277732 C6.48095722,23.5796194 7.10407983,23.087253 7.7814744,22.5486645 L1.7773866,22.5486645 Z" id="Fill-20"></path>
                <path d="M68.2734128,7.16814457 C68.5528129,7.16814457 68.7317094,7.1279514 68.8121123,7.04756505 C68.8905051,6.96918837 68.9307066,6.78028046 68.9307066,6.48084134 L68.9307066,3.8823528 C68.9307066,3.22519445 69.0593513,2.79713718 69.3186507,2.59818098 C69.57594,2.39922478 69.9357431,2.30075151 70.3940397,2.30075151 C70.9307291,2.30075151 71.3106329,2.39922478 71.5277208,2.59818098 C71.7488288,2.79713718 71.8573728,3.22519445 71.8573728,3.8823528 L71.8573728,7.19828945 C71.8573728,7.83535121 71.8131512,8.34781415 71.7226979,8.73567825 C71.6342547,9.12354236 71.4855093,9.42901046 71.2744516,9.64605358 C71.0674141,9.86711603 70.7980643,10.0158308 70.4684124,10.0962171 C70.1407705,10.1745938 69.7266955,10.214787 69.2302075,10.214787 L58.6230527,10.214787 C58.1265647,10.214787 57.7124897,10.1745938 57.3848478,10.0962171 C57.0551958,10.0158308 56.7918763,9.86711603 56.592879,9.64605358 C56.3938818,9.42901046 56.2551868,9.12354236 56.1747839,8.73567825 C56.094381,8.34781415 56.0561896,7.83535121 56.0561896,7.19828945 L56.0561896,3.94264256 C56.0561896,3.30558079 56.1707637,2.88154284 56.399912,2.67253834 C56.6270503,2.46353385 57.0009238,2.35903161 57.5175126,2.35903161 C57.99792,2.35903161 58.3537029,2.47961112 58.5949117,2.71876049 C58.8341103,2.9559002 58.9527046,3.36587055 58.9527046,3.94264256 L58.9527046,6.60142085 C58.9527046,6.86066681 58.9667752,7.01942983 58.9989363,7.07971959 C59.0270773,7.13799969 59.1215508,7.16814457 59.2803465,7.16814457 L62.4482214,7.16814457 L62.4482214,2.53789122 C62.4482214,1.90082945 62.5768661,1.48282047 62.8361655,1.28386427 C63.0954649,1.08691773 63.4532579,0.986434803 63.9115545,0.986434803 C64.3698511,0.986434803 64.7276441,1.10098534 64.9869435,1.33008642 C65.2462429,1.55717784 65.3768977,1.96111921 65.3768977,2.53789122 L65.3768977,7.16814457 L68.2734128,7.16814457 Z M49.5716943,22.9962155 L49.5716943,23.0263604 C49.6520973,22.9881768 49.72647,22.952003 49.7988326,22.9218581 C49.8671751,22.8917132 49.9415478,22.857549 50.0219507,22.8173559 C50.2008472,21.9612413 50.3797437,20.9865569 50.5586401,19.891293 C50.7375366,18.7960291 50.8963324,17.6806686 51.0370375,16.5472211 C51.1757325,15.411764 51.3063873,14.3104711 51.4249816,13.2453521 C51.5455859,12.180233 51.6340292,11.2296645 51.6943313,10.3936466 C51.6943313,10.3132602 51.6983515,10.2449318 51.7084019,10.1846421 C51.7184522,10.1243523 51.7244824,10.0560239 51.7244824,9.97563759 L48.2591167,9.97563759 L48.3475599,10.3333568 C48.5083658,11.2698577 48.6611313,12.3309574 48.8098767,13.5146463 C48.9606322,14.7003449 49.0852567,15.8780048 49.1857603,17.0536551 C49.2842539,18.2293053 49.368677,19.3446658 49.4390295,20.3977269 C49.507372,21.4548073 49.5536037,22.3209702 49.5716943,22.9962155 L49.5716943,22.9962155 Z M54.8903473,23.7739533 C54.331547,24.111576 53.7687266,24.4250827 53.201886,24.7144735 C52.6350455,25.0038644 52.0320236,25.2872262 51.3968406,25.5645591 C50.7576374,25.8439017 50.0742126,26.1172152 49.3485763,26.3865095 C48.6229399,26.6558037 47.8209208,26.9391656 46.944529,27.2386047 C46.226933,27.4757444 45.6801932,27.5259859 45.3002894,27.3873194 C44.9223957,27.248653 44.6852071,26.8889241 44.5847034,26.3121521 C44.4259077,25.8137568 44.4198775,25.4118251 44.5686229,25.1023377 C44.7173683,24.7948599 45.1213929,24.529585 45.7806968,24.3105322 C45.9977847,24.2502424 46.2168826,24.187943 46.4379907,24.117605 C46.6550785,24.0472669 46.8741765,23.9729095 47.0932744,23.8925232 C47.0731737,23.8141465 47.0631233,23.6734704 47.0631233,23.4745142 C46.8440254,21.2257063 46.6490483,19.0954682 46.4802022,17.0838 C46.3113561,15.0721317 46.088238,13.0624732 45.8088378,11.0508049 C45.7686364,10.8317521 45.7344651,10.6327959 45.7043141,10.4539363 C45.674163,10.2730671 45.6701428,10.114304 45.6902435,9.97563759 C45.290239,9.93544442 45.0068188,9.79275866 44.8379726,9.543561 C44.6691265,9.29436334 44.5847034,8.90047026 44.5847034,8.36188176 C44.5847034,7.84539951 44.6892272,7.46155472 44.8982748,7.21235706 C45.1073224,6.96315939 45.5113471,6.83856056 46.1083387,6.83856056 L48.5867586,6.83856056 C48.3676607,6.42055158 48.1485627,5.99450396 47.9294648,5.55438873 C47.7123769,5.11628317 47.4611178,4.69023555 47.1837277,4.27222657 C46.944529,3.87230451 46.8842269,3.49046938 47.0048312,3.12069221 C47.1254356,2.75292469 47.3525738,2.45951454 47.6922762,2.24046175 C48.0681598,2.00131238 48.4581139,1.94102262 48.8561084,2.05959248 C49.2541028,2.18017199 49.561644,2.40927307 49.782752,2.74689571 C49.921447,2.96795815 50.0521018,3.17093367 50.1706961,3.35984158 C50.2913004,3.54874948 50.4139149,3.75976363 50.5445696,3.98685505 C50.6732143,4.21595613 50.8159295,4.48123106 50.9787454,4.77866053 C51.1375411,5.07608999 51.3144276,5.43581888 51.5154349,5.85382786 C51.6943313,6.17336357 51.7626738,6.50093792 51.7244824,6.83856056 L53.9054116,6.83856056 C54.4018996,6.83856056 54.7958739,6.95512076 55.0833143,7.18221218 C55.3727648,7.41332291 55.51749,7.81525463 55.51749,8.39202664 C55.51749,9.24814119 55.1777877,9.75658481 54.5003931,9.91534783 C54.5003931,10.0359273 54.496373,10.1605262 54.4883327,10.2891443 C54.4762723,10.4197721 54.4622017,10.5624579 54.442101,10.7232306 C54.3415974,11.4989588 54.2431038,12.345025 54.1446102,13.2614294 C54.0441066,14.175824 53.9335526,15.1022766 53.8149583,16.0387775 C53.6943539,16.9732687 53.5717394,17.889673 53.4410847,18.7859808 C53.31244,19.6822885 53.1777652,20.4982099 53.0390701,21.2357546 C53.0973622,21.1955614 53.1536443,21.1593875 53.201886,21.1312523 C53.2521379,21.1011074 53.3084199,21.0669432 53.366712,21.0267501 C53.8652101,20.7072144 54.2933556,20.538403 54.6511486,20.5183065 C55.0089416,20.4982099 55.3285432,20.6770695 55.6059332,21.056895 L55.6059332,19.1738449 C55.6059332,18.0986775 55.7707592,17.3329976 56.0984011,16.8747955 C56.4280531,16.4165933 57.0310749,16.1874922 57.9074667,16.1874922 L61.2542381,16.1874922 C61.3527317,15.988536 61.4612756,15.7252708 61.58188,15.3956868 C61.7004743,15.0681124 61.8090183,14.7847506 61.9095219,14.5456012 L56.7436345,14.5456012 C56.1848342,14.5456012 55.8069405,14.4109541 55.6059332,14.1416598 C55.4089461,13.8723656 55.3084424,13.510627 55.3084424,13.0524249 C55.3084424,12.533933 55.4089461,12.1661654 55.6059332,11.9471126 C55.8069405,11.7280599 56.1848342,11.6175286 56.7436345,11.6175286 L71.6784763,11.6175286 C72.2171758,11.6175286 72.5890393,11.7320792 72.7980869,11.9611803 C73.0071345,12.1902813 73.1116583,12.5640778 73.1116583,13.0805601 C73.1116583,13.5387622 73.0071345,13.8984911 72.7980869,14.1577371 C72.5890393,14.4149734 72.2171758,14.5456012 71.6784763,14.5456012 L64.9266413,14.5456012 C64.8482485,14.7847506 64.7638254,15.0681124 64.6733722,15.3956868 C64.5829189,15.7252708 64.4884455,15.988536 64.3879418,16.1874922 L69.9457934,16.1874922 C70.8402759,16.1874922 71.4593783,16.4165933 71.7970706,16.8747955 C72.1367729,17.3329976 72.305619,18.0986775 72.305619,19.1738449 L72.305619,26.0730027 C72.305619,27.3270297 72.1307427,28.1931925 71.7830001,28.6714913 C71.4332474,29.14979 70.7518327,29.3688428 69.7367458,29.3286496 C68.1246674,29.2683599 67.425162,28.5710083 67.64627,27.2386047 C67.8231564,26.2418141 68.2312012,25.8338534 68.8704044,26.012713 C69.1498045,26.0930993 69.3086003,26.1031476 69.3488018,26.0428579 C69.3890032,25.9825681 69.4070939,25.8238051 69.4070939,25.5645591 L69.4070939,20.0701526 C69.4070939,19.6722402 69.3729226,19.4330908 69.3045802,19.3527045 C69.2342276,19.2743278 69.0392505,19.2341346 68.721659,19.2341346 L67.4673735,19.2341346 L67.4673735,27.2084598 C67.4673735,27.7852318 67.3829504,28.2032408 67.2141043,28.4624868 C67.0432481,28.7217327 66.6693746,28.8503509 66.0924836,28.8503509 C65.5537841,28.8503509 65.2020213,28.7297714 65.0331752,28.4926317 C64.862319,28.2534823 64.777896,27.8354733 64.777896,27.2386047 L64.777896,19.2341346 L63.0452131,19.2341346 L63.0452131,27.178315 C63.0452131,27.755087 62.9547598,28.173096 62.7778734,28.4323419 C62.5969668,28.6915879 62.2190731,28.820206 61.6401721,28.820206 C61.1436841,28.820206 60.7999617,28.7016362 60.6090047,28.4624868 C60.4220679,28.2233374 60.3275945,27.8053284 60.3275945,27.2084598 L60.3275945,19.2341346 L59.2220544,19.2341346 C58.8622514,19.2341346 58.6491836,19.2682988 58.5808412,19.3386369 C58.5104886,19.4089749 58.4743073,19.5818056 58.4743073,19.8611481 L58.4743073,27.9259079 C58.4743073,28.5629697 58.3456626,28.984998 58.0863632,29.1940025 C57.8290739,29.403007 57.4592205,29.5075092 56.9808231,29.5075092 C56.5627279,29.5075092 56.2290558,29.403007 55.9818169,29.1940025 C55.7325678,28.984998 55.6059332,28.5629697 55.6059332,27.9259079 L55.6059332,23.2956546 C55.5074397,23.3760409 55.4029159,23.4544176 55.2943719,23.534804 C55.1838179,23.6151903 55.049143,23.693567 54.8903473,23.7739533 L54.8903473,23.7739533 Z" id="Fill-22"></path>
                <path d="M110.720525,8.36248466 C111.317516,8.20372163 111.769783,8.13941255 112.079334,8.16955743 C112.386875,8.19769265 112.620043,8.39262953 112.780849,8.75034876 C112.939645,9.11007764 112.935625,9.4034878 112.766779,9.63258887 C112.597933,9.86168995 112.222049,10.0546172 111.645158,10.2133802 C111.126559,10.3540563 110.59992,10.4786551 110.063231,10.5871767 C109.524531,10.6977079 108.796885,10.8223067 107.882302,10.9609732 C107.303401,11.0413595 106.831033,11.0353306 106.46319,10.9469056 C106.093337,10.8564709 105.860168,10.603254 105.759665,10.185245 C105.701372,9.82752575 105.779765,9.56225082 105.998863,9.3934395 C106.219971,9.22462818 106.686308,9.10002935 107.403904,9.01964301 C108.000896,8.94126632 108.579797,8.84681237 109.136587,8.73628115 C109.693377,8.62775959 110.222026,8.50316076 110.720525,8.36248466 L110.720525,8.36248466 Z M112.899444,12.1848553 C113.478345,12.3456279 113.842168,12.5184586 113.990913,12.7093761 C114.139659,12.8982841 114.133628,13.1916942 113.974833,13.5896066 C113.816037,13.9674224 113.566788,14.1864752 113.229096,14.246765 C112.889393,14.3070547 112.402956,14.2568132 111.765762,14.0980502 C110.909471,13.8970844 110.083331,13.7383213 109.285332,13.6197515 C108.489344,13.499172 107.703405,13.3906504 106.925507,13.2901675 C106.348616,13.2117908 105.970722,13.0670954 105.791826,12.8580909 C105.610919,12.6490864 105.562677,12.3757728 105.64308,12.0361405 C105.739564,11.6382281 105.940571,11.3990788 106.240072,11.3186924 C106.537563,11.2403157 107.0039,11.2403157 107.643103,11.3186924 C108.6602,11.4392719 109.558702,11.5578418 110.344641,11.6784213 C111.132589,11.7969912 111.98486,11.9658025 112.899444,12.1848553 L112.899444,12.1848553 Z M104.505379,21.2062126 L104.505379,22.8782485 L110.360721,22.8782485 C110.620021,22.8782485 110.782837,22.8320264 110.853189,22.7436014 C110.923542,22.6531668 110.957713,22.4602395 110.957713,22.1608004 L110.957713,21.2062126 L104.505379,21.2062126 Z M110.957713,17.7998413 C110.957713,17.5225084 110.903441,17.3436488 110.794897,17.2632625 C110.684343,17.1828761 110.501427,17.142683 110.242127,17.142683 L104.505379,17.142683 L104.505379,18.9654433 L110.957713,18.9654433 L110.957713,17.7998413 Z M95.2469832,22.2793703 C95.2469832,22.5004327 95.295225,22.6531668 95.3957286,22.7436014 C95.4942222,22.8320264 95.6932194,22.8782485 95.9927203,22.8782485 L101.21891,22.8782485 L101.21891,21.2062126 L95.2469832,21.2062126 L95.2469832,22.2793703 Z M95.2469832,18.9654433 L101.21891,18.9654433 L101.21891,17.142683 L95.902267,17.142683 C95.6228669,17.142683 95.4439704,17.1929244 95.3655775,17.2934073 C95.2851746,17.3918806 95.2469832,17.5807885 95.2469832,17.8601311 L95.2469832,18.9654433 Z M96.0831736,8.18362504 C96.3002614,8.22381821 96.5696112,8.27405968 96.8892128,8.33233978 C97.2068043,8.39262953 97.5344462,8.45693861 97.8741485,8.52727666 C98.2118408,8.59761471 98.5555632,8.67197208 98.9053159,8.75034876 C99.2530585,8.8307351 99.5766803,8.91112145 99.8741711,8.98949813 C100.274176,9.08998106 100.523425,9.25477306 100.623928,9.48387414 C100.722422,9.71096556 100.692271,10.0365302 100.533475,10.4545392 C100.412871,10.7720653 100.227944,10.9649925 99.9807049,11.0353306 C99.7314559,11.1056686 99.3173809,11.0614561 98.7404899,10.9006834 C98.5012913,10.8424033 98.2218911,10.7780943 97.9042996,10.7077562 C97.5867081,10.6374182 97.2570561,10.5690898 96.9193639,10.4987517 C96.5796616,10.4284137 96.2479995,10.3600853 95.9183476,10.2877376 C95.5907057,10.2194092 95.295225,10.1651484 95.0359256,10.1249552 C94.4590346,10.026482 94.0952114,9.86168995 93.946466,9.63258887 C93.7977206,9.4034878 93.7816401,9.12012594 93.9022444,8.78049364 C94.0610402,8.36248466 94.2901885,8.12333529 94.5896894,8.06505519 C94.8871802,8.00476543 95.3856783,8.0449586 96.0831736,8.18362504 L96.0831736,8.18362504 Z M99.100293,11.2905572 C99.7575868,11.1297845 100.233974,11.085572 100.533475,11.1559101 C100.830966,11.2242385 101.050064,11.4593685 101.190769,11.8572809 C101.309363,12.1969132 101.281222,12.4742461 101.100316,12.6932989 C100.921419,12.9123517 100.561616,13.0932209 100.026937,13.2298777 C99.4882371,13.3504572 99.0058196,13.4549595 98.575664,13.5453941 C98.1475184,13.6338191 97.7354535,13.7142054 97.3374591,13.7825338 C96.9394646,13.8528719 96.5334299,13.9171809 96.1273952,13.9774707 C95.7193504,14.0377605 95.2751242,14.0980502 94.7967269,14.1563303 C94.0610402,14.2568132 93.5484716,14.2507843 93.2590211,14.1422627 C92.9715807,14.0317315 92.7967043,13.7684662 92.7364021,13.3504572 C92.6761,12.9324482 92.7464525,12.6289898 92.9454497,12.4400819 C93.144447,12.251174 93.5846529,12.1265752 94.2620475,12.0662854 C94.8972305,12.0059956 95.6489978,11.9115417 96.5153392,11.7829235 C97.3816807,11.6543054 98.2419919,11.4895134 99.100293,11.2905572 L99.100293,11.2905572 Z M111.615007,14.7250637 C112.191898,14.7250637 112.666275,14.7692762 113.034118,14.8577012 C113.403972,14.9481358 113.695432,15.1028795 113.91654,15.3219323 C114.133628,15.5409851 114.282374,15.8243469 114.362777,16.1720179 C114.44519,16.5216985 114.483381,16.9457364 114.483381,17.4421221 L114.483381,22.5486645 C114.483381,23.5856483 114.270313,24.2910385 113.842168,24.6688543 C113.414022,25.0466701 112.630094,25.2375877 111.496413,25.2375877 L104.505379,25.2375877 L104.505379,25.6857415 C104.505379,25.8646011 104.52548,26.0092966 104.565681,26.1178181 C104.605883,26.2283494 104.696336,26.306726 104.835031,26.3569675 C104.973726,26.407209 105.172723,26.4413732 105.432023,26.4614697 C105.691322,26.4815663 106.039065,26.4916146 106.479271,26.4916146 L111.854206,26.4916146 C112.451197,26.4916146 112.943665,26.4554408 113.333619,26.3871124 C113.721563,26.3167743 114.029105,26.2082528 114.260263,26.0575284 C114.487401,25.9088136 114.652227,25.7038285 114.752731,25.4465922 C114.853234,25.1873462 114.911527,24.8678105 114.931627,24.4899947 C114.969819,23.7946528 115.090423,23.2962575 115.28942,22.9968184 C115.488417,22.6973792 115.906513,22.5486645 116.543706,22.5486645 C117.082405,22.5486645 117.452259,22.7134565 117.649246,23.0410309 C117.848243,23.3706149 117.938696,23.7946528 117.918596,24.3111351 C117.880404,25.3059161 117.7598,26.1218374 117.558793,26.7609089 C117.361805,27.3979706 117.038184,27.8943563 116.589937,28.2540852 C116.141691,28.6118044 115.54872,28.8610021 114.811023,28.9996685 C114.075336,29.138335 113.148693,29.2187213 112.033102,29.2388179 L106.44711,29.208673 C105.393831,29.1885764 104.52548,29.1142191 103.848085,28.9856009 C103.170691,28.8549731 102.638021,28.6620459 102.250077,28.4027999 C101.862133,28.143554 101.592783,27.8159796 101.444038,27.4160576 C101.295293,27.0181452 101.21891,26.5398464 101.21891,25.983171 L101.21891,25.2375877 L94.7665758,25.2375877 C93.6328947,25.2375877 92.8610267,25.0125059 92.4529819,24.5663617 C92.0449371,24.1161982 91.8399096,23.3846825 91.8399096,22.3698049 L91.8399096,17.4421221 C91.8399096,16.4272445 92.0449371,15.7198447 92.4529819,15.3219323 C92.8610267,14.9240199 93.6328947,14.7250637 94.7665758,14.7250637 L111.615007,14.7250637 Z M105.013928,12.1265752 C105.013928,12.7033472 104.895333,13.151501 104.654124,13.4710367 C104.416936,13.7885628 104.008891,13.9473258 103.42999,13.9473258 C102.812898,13.9473258 102.388772,13.7885628 102.161634,13.4710367 C101.932486,13.151501 101.817912,12.7033472 101.817912,12.1265752 L101.817912,7.82590582 L93.5746026,7.79576094 C93.3153031,7.79576094 93.1846484,7.89624387 93.1846484,8.09319041 L93.1846484,10.9308283 C93.1846484,11.4493202 93.0137922,11.8130684 92.6761,12.0220729 C92.3363976,12.2310774 91.9504636,12.3355797 91.5102577,12.3355797 C90.4770802,12.3355797 89.9584814,11.8673292 89.9584814,10.9308283 L89.9584814,7.94447567 C89.9584814,7.24712415 90.2017002,6.66633282 90.6901479,6.19808237 C91.1765856,5.72983193 91.9002118,5.49671153 92.8549965,5.49671153 L101.817912,5.49671153 L101.817912,4.38938966 L93.6911868,4.38938966 C93.1544973,4.38938966 92.7263518,4.34115786 92.4087603,4.24067493 C92.0891587,4.14220166 91.9303629,3.81261765 91.9303629,3.25594223 C91.9303629,2.73745032 92.0891587,2.3937987 92.4087603,2.22498738 C92.7263518,2.05617606 93.1544973,1.9717704 93.6911868,1.9717704 L113.377841,1.9717704 C113.954732,1.9717704 114.409008,2.04009879 114.73665,2.18077489 C115.066302,2.31944133 115.229118,2.64902534 115.229118,3.16751725 C115.229118,3.72419267 115.066302,4.06784429 114.73665,4.19646244 C114.409008,4.32709025 113.954732,4.38938966 113.377841,4.38938966 L105.013928,4.38938966 L105.013928,5.49671153 L114.362777,5.49671153 C115.261279,5.49671153 115.932644,5.59116549 116.37888,5.78007339 C116.829136,5.9689813 117.130647,6.38297096 117.291453,7.02003273 C117.430148,7.55661157 117.420098,8.16352846 117.261302,8.8407834 C117.102506,9.51803833 116.754763,10.3138631 116.216064,11.2302674 C115.916563,11.7869429 115.55877,12.1205462 115.140675,12.2310774 C114.72258,12.339599 114.282374,12.245145 113.826087,11.9477155 C113.428093,11.6884696 113.184874,11.3950594 113.094421,11.0654754 C113.005977,10.7379011 113.118542,10.3038148 113.438143,9.767236 C113.677342,9.36731394 113.832117,9.03973959 113.90046,8.78049364 C113.970812,8.52325734 114.025084,8.27405968 114.065286,8.03491031 C114.105487,7.87413762 114.015034,7.79576094 113.795936,7.79576094 L105.013928,7.82590582 L105.013928,12.1265752 Z" id="Fill-24"></path>
                <path d="M153.734879,12.1854582 L153.734879,14.2453582 C153.734879,14.5267104 153.785131,14.7035603 153.885634,14.7839467 C153.984128,14.864333 154.112773,14.9045262 154.273578,14.9045262 C154.59318,14.9226131 154.985144,14.9326614 155.451481,14.9326614 C155.921838,14.9326614 156.323853,14.9226131 156.663555,14.9045262 L156.842452,14.9045262 L156.842452,13.3510601 C156.842452,12.892858 156.747978,12.5833706 156.559031,12.4246075 C156.370084,12.2658445 155.97611,12.1854582 155.377108,12.1854582 L153.734879,12.1854582 Z M152.152951,21.1143712 C152.152951,20.7184684 152.058478,20.4592225 151.867521,20.338643 C151.680584,20.2200731 151.29666,20.1597834 150.717759,20.1597834 L145.521721,20.1597834 C145.081515,20.1597834 144.844326,20.4592225 144.804125,21.0560911 L144.773974,22.0106789 C144.753873,22.4306975 144.828246,22.7040111 144.997092,22.8326293 C145.165938,22.9632571 145.451368,23.0275661 145.849363,23.0275661 L151.196157,23.0275661 C151.533849,23.0275661 151.779078,22.9632571 151.929833,22.8326293 C152.078579,22.7040111 152.152951,22.4588328 152.152951,22.1011135 L152.152951,21.1143712 Z M144.176982,17.2940102 C144.275476,17.2739137 144.434271,17.2618557 144.653369,17.2618557 L151.256459,17.2618557 C150.759971,16.8257598 150.510722,15.9977805 150.510722,14.7839467 L150.510722,12.1854582 L147.463451,12.1854582 C147.501643,12.3643178 147.487572,12.5693029 147.41722,12.798404 C147.346867,13.0275051 147.234303,13.310867 147.075507,13.6484896 C146.753896,14.2855514 146.357911,14.9125648 145.879514,15.5315397 C145.401117,16.1485049 144.834276,16.7353252 144.176982,17.2940102 L144.176982,17.2940102 Z M145.013172,8.60223692 C145.113676,8.91976298 145.171968,9.17900893 145.192069,9.37796513 L151.405204,9.37796513 C151.84541,8.58214034 152.163002,7.91493369 152.359989,7.37634519 C152.480593,7.01862597 152.609238,6.73124479 152.749943,6.51018235 L143.996076,6.51018235 C144.038287,6.55037552 144.066428,6.60061699 144.086529,6.66090674 C144.10663,6.71918684 144.136781,6.76942831 144.176982,6.80962148 C144.39608,7.20753387 144.560906,7.52104061 144.66945,7.75014169 C144.780004,7.97924277 144.894578,8.26260462 145.013172,8.60223692 L145.013172,8.60223692 Z M139.815124,16.3675576 C139.97392,16.206785 140.213118,16.0480219 140.53272,15.8892589 C141.429212,15.4310567 142.185,14.8844296 142.804102,14.2453582 C143.419185,13.6082964 143.857381,12.9511381 144.11668,12.2738831 C144.11668,12.2557962 144.12271,12.2397189 144.132761,12.2296706 C144.142811,12.221632 144.146831,12.2055547 144.146831,12.1854582 L141.338759,12.1854582 C140.701566,12.1854582 140.289501,12.2698638 140.100554,12.4386751 C139.909597,12.6074865 139.815124,12.9330511 139.815124,13.4093402 L139.815124,16.3675576 Z M157.111801,9.37796513 C158.245482,9.37796513 159.039461,9.62716279 159.485697,10.1255581 C159.933944,10.6219438 160.157062,11.4378652 160.157062,12.5733223 L160.157062,25.4150405 C160.157062,27.2478491 159.744997,28.437567 158.918857,28.9841941 C158.092717,29.5328309 156.741948,29.6071883 154.87057,29.2092759 C154.094682,29.0505129 153.616285,28.761122 153.437388,28.3431131 C153.258492,27.9251041 153.258492,27.4568536 153.437388,26.9383617 C153.656486,26.3414931 153.960007,26.0018608 154.347951,25.9234841 C154.735895,25.8430978 155.200222,25.9134359 155.736911,26.1324886 C156.23541,26.3515414 156.542951,26.3676187 156.663555,26.1767011 C156.784159,25.9877932 156.842452,25.6160064 156.842452,25.0573213 L156.842452,17.9793038 L156.812301,17.9793038 C156.53491,18.019497 156.215309,18.0395936 155.857516,18.0395936 L154.782127,18.0395936 C155.218313,18.4977957 155.439421,19.2534273 155.439421,20.3084981 L155.439421,22.8185617 C155.439421,23.9721057 155.190172,24.7699401 154.691674,25.206036 C154.195186,25.6441416 153.387136,25.865204 152.271546,25.865204 L144.653369,25.865204 C143.539789,25.865204 142.73777,25.6441416 142.249322,25.206036 C141.760875,24.7699401 141.517656,23.9721057 141.517656,22.8185617 L141.517656,20.3084981 C141.517656,19.7518227 141.577958,19.2735239 141.698562,18.8756115 C140.920664,19.2152438 140.293521,19.2051955 139.815124,18.8454667 L139.815124,28.1341086 C139.815124,28.7711703 139.686479,29.2193242 139.42718,29.4765605 C139.16788,29.7358065 138.769886,29.8664343 138.231186,29.8664343 C137.654296,29.8664343 137.22012,29.7458547 136.932679,29.508715 C136.643229,29.267556 136.500514,28.8093539 136.500514,28.1341086 L136.500514,12.5733223 C136.500514,11.4378652 136.707551,10.6219438 137.125646,10.1255581 C137.543742,9.62716279 138.33169,9.37796513 139.487482,9.37796513 L141.9056,9.37796513 C141.787005,9.15891235 141.672431,8.95593683 141.561877,8.76501927 C141.453333,8.57812102 141.34881,8.37313585 141.248306,8.15408306 C140.930714,7.51702129 140.930714,6.96838451 141.248306,6.51018235 L136.707551,6.51018235 C136.072368,6.51018235 135.622112,6.41170908 135.364822,6.21275288 C135.105523,6.01379668 134.976878,5.62593258 134.976878,5.04715091 C134.976878,4.51057207 135.105523,4.12672729 135.364822,3.89762621 C135.622112,3.66852513 136.072368,3.55397459 136.707551,3.55397459 L146.388062,3.55397459 L146.297609,3.37511498 C145.980018,2.61948336 145.917705,2.08089486 146.118713,1.76135915 C146.31771,1.44383309 146.657412,1.20468372 147.133799,1.0459207 C147.632298,0.885148011 148.098634,0.867061084 148.53884,0.985630939 C148.977036,1.1042008 149.324779,1.42373651 149.584078,1.94222842 C149.722773,2.34014082 149.90167,2.87872931 150.120768,3.55397459 L160.368119,3.55397459 C161.003303,3.55397459 161.453559,3.65445752 161.712858,3.85341372 C161.970148,4.05236992 162.098792,4.44023402 162.098792,5.01901569 C162.098792,5.55559453 161.970148,5.93943932 161.712858,6.16653074 C161.453559,6.39764147 161.003303,6.51018235 160.368119,6.51018235 L155.13992,6.51018235 C155.377108,6.73124479 155.517814,6.99451007 155.558015,7.30198783 C155.598216,7.61147525 155.517814,8.01541662 155.318816,8.51180229 C155.260524,8.67056531 155.200222,8.82128971 155.13992,8.95995615 C155.079618,9.09862259 155.021326,9.23929869 154.959013,9.37796513 L157.111801,9.37796513 Z" id="Fill-26"></path>
                <path d="M194.122872,5.04755284 C194.561068,4.49087742 194.938962,3.9583179 195.258563,3.44987428 C195.578165,2.94143066 195.827414,2.49930578 196.00631,2.11948031 C196.303801,1.50452478 196.637473,1.12068 197.007327,0.971965261 C197.37316,0.821240868 197.817386,0.857414723 198.335985,1.07445785 C198.812372,1.29552029 199.121923,1.55275659 199.262628,1.85219572 C199.401323,2.15163484 199.359112,2.54954724 199.142024,3.04593291 L205.833557,3.04593291 C206.410448,3.04593291 206.852664,3.14641583 207.162215,3.34537203 C207.471766,3.54432823 207.626542,3.92214404 207.626542,4.48082913 C207.626542,5.01740796 207.471766,5.37713685 207.162215,5.5539868 C206.852664,5.73485607 206.410448,5.82328105 205.833557,5.82328105 L197.437482,5.82328105 C197.298787,6.02223725 197.10984,6.27143491 196.870642,6.57087404 C196.633453,6.87031317 196.432446,7.11951083 196.27365,7.31645737 C196.155056,7.43703688 196.020381,7.54756811 195.869625,7.64604138 C195.72088,7.7465243 195.558064,7.81083338 195.377157,7.84097826 C195.198261,7.86911348 195.003284,7.85102655 194.796246,7.7806885 C194.585189,7.71035045 194.362071,7.56565503 194.122872,7.34861191 C193.80528,7.06926937 193.630404,6.72963707 193.600253,6.33172467 C193.572112,5.93381227 193.744978,5.505755 194.122872,5.04755284 L194.122872,5.04755284 Z M201.353104,24.6397143 C201.353104,24.3603717 201.184258,24.2217053 200.844556,24.2217053 L186.474545,24.2217053 L186.474545,26.3720399 C186.474545,26.6111893 186.63535,26.7297592 186.954952,26.7297592 L200.904858,26.7297592 C201.202349,26.7297592 201.353104,26.6312859 201.353104,26.4323297 L201.353104,24.6397143 Z M199.739016,16.4865294 C199.739016,16.3076698 199.59027,16.2172352 199.290769,16.2172352 L186.954952,16.2172352 C186.63535,16.2172352 186.474545,16.3277664 186.474545,16.5468192 L186.474545,17.9797057 L199.230467,17.9797057 C199.57017,17.9797057 199.739016,17.8510876 199.739016,17.5918416 L199.739016,16.4865294 Z M204.697866,26.9689085 C204.697866,27.8049265 204.478768,28.4038048 204.042582,28.761524 C203.602376,29.1192432 202.836538,29.2981028 201.741048,29.2981028 L186.088611,29.2981028 C184.952919,29.2981028 184.177031,29.1192432 183.758936,28.761524 C183.340841,28.4038048 183.129783,27.8049265 183.129783,26.9689085 L183.129783,16.0685204 C183.129783,15.2525991 183.340841,14.6436725 183.758936,14.2457601 C184.177031,13.8478477 184.952919,13.6488915 186.088611,13.6488915 L200.098819,13.6488915 C201.2325,13.6488915 202.010398,13.8478477 202.428493,14.2457601 C202.846588,14.6436725 203.053626,15.2525991 203.053626,16.0685204 L203.053626,18.2188551 C203.053626,19.0548731 202.846588,19.6577707 202.428493,20.0255382 C202.010398,20.3933057 201.2325,20.5781943 200.098819,20.5781943 L186.474545,20.5781943 L186.474545,21.7116417 L201.741048,21.7116417 C202.836538,21.7116417 203.602376,21.886482 204.042582,22.2361626 C204.478768,22.5838335 204.697866,23.1666345 204.697866,23.9825559 L204.697866,26.9689085 Z M189.194173,9.28793243 C189.11578,9.36831877 189.055478,9.41856023 189.015277,9.43865682 L191.017309,9.43865682 C190.936906,9.25778755 190.898715,9.06084101 190.898715,8.83977857 C190.898715,8.62072578 190.930876,8.40770197 191.001229,8.19869748 C191.069571,7.98969299 191.190176,7.80078509 191.361032,7.63197377 C191.529878,7.46316245 191.734905,7.33856361 191.974104,7.25817727 C192.508783,7.05922107 192.97914,7.04917278 193.377135,7.22803239 C193.775129,7.40689201 194.171114,7.78470782 194.571118,8.36147983 C194.651521,8.48205934 194.754035,8.64685134 194.88469,8.85585583 C195.013334,9.06486033 195.117858,9.25778755 195.198261,9.43865682 L201.322953,9.43865682 C201.043553,9.17941086 200.780233,8.96035808 200.530984,8.77948881 C200.279725,8.60263885 200.028466,8.41172129 199.769167,8.21276509 C199.469666,7.99371231 199.30082,7.72642772 199.262628,7.40689201 C199.220417,7.08936595 199.351072,6.77987853 199.650572,6.4804394 C199.948063,6.14281676 200.267665,5.97802476 200.607367,5.98807305 C200.945059,5.99812135 201.252601,6.11267189 201.532001,6.33172467 C201.771199,6.4904877 202.05864,6.6793956 202.398342,6.89844839 C202.736034,7.11951083 203.043576,7.36669883 203.322976,7.64604138 C203.503882,7.82490099 203.624487,7.99371231 203.682779,8.15247534 C203.741071,8.31324802 203.757151,8.46799173 203.727,8.61670646 C203.698859,8.7654212 203.636547,8.91011662 203.546094,9.04878306 C203.459661,9.18945916 203.365187,9.31807731 203.264684,9.43865682 C204.080773,9.43865682 204.758168,9.4929176 205.296867,9.60143916 C205.833557,9.71197039 206.261702,9.87073341 206.579294,10.0797379 C206.896885,10.2887424 207.111963,10.5479884 207.222517,10.8574758 C207.331061,11.1649535 207.377293,11.5186534 207.357192,11.9165658 C207.337091,12.2541885 207.286839,12.6078884 207.208447,12.9776656 C207.128044,13.3454331 206.969248,13.7895676 206.728039,14.3060499 C206.508941,14.9029185 206.21145,15.3068598 205.833557,15.5158643 C205.455663,15.7248688 204.916964,15.7208495 204.219468,15.4997871 C203.682779,15.3028405 203.355137,15.0536429 203.234532,14.7542037 C203.115938,14.4547646 203.17423,13.9985721 203.413429,13.3795973 C203.612426,12.863115 203.672728,12.5295117 203.592325,12.3787873 C203.513933,12.2300726 203.254633,12.1557152 202.816437,12.1557152 L184.265474,12.1557152 C183.827278,12.1557152 183.527778,12.2200243 183.368982,12.3506521 C183.208176,12.4792702 183.129783,12.7123906 183.129783,13.0520229 L183.129783,14.0970454 C183.129783,14.5552475 182.964957,14.9029185 182.637315,15.1420678 C182.309673,15.3812172 181.885548,15.4997871 181.366949,15.4997871 C180.790058,15.4997871 180.345832,15.3952848 180.038291,15.1862803 C179.73075,14.9772758 179.575974,14.6356339 179.575974,14.1573351 L179.575974,12.216005 C179.575974,11.2795041 179.847334,10.5821525 180.398094,10.1239504 C180.944834,9.6677579 181.825246,9.43865682 183.03933,9.43865682 L187.342896,9.43865682 C187.083597,9.23769096 186.808217,9.02466715 186.520776,8.79556608 C186.231326,8.566465 185.978056,8.36147983 185.758959,8.18462987 C185.479558,7.98366402 185.336843,7.71637943 185.326793,7.37674713 C185.314732,7.03912449 185.451417,6.74973365 185.728807,6.51058428 C185.949915,6.23124174 186.241376,6.08252701 186.611229,6.06243042 C186.979073,6.04434349 187.300684,6.12272018 187.582095,6.30157979 C187.959988,6.56082575 188.253459,6.77987853 188.462507,6.95873814 C188.671554,7.13759776 188.886632,7.31645737 189.10573,7.49732664 C189.481614,7.83494928 189.64644,8.15247534 189.598198,8.45191446 C189.547946,8.75135359 189.413271,9.02868647 189.194173,9.28793243 L189.194173,9.28793243 Z M182.174999,8.12434012 C181.159912,9.02064784 180.261409,9.04878306 179.485521,8.21276509 C179.147829,7.87514245 179.017174,7.47723006 179.097577,7.0190279 C179.17597,6.56082575 179.505622,6.10262359 180.084523,5.64442144 C180.719706,5.12793919 181.292577,4.53107059 181.801125,3.85381565 C182.309673,3.17656071 182.721738,2.51940236 183.03933,1.88234059 C183.31873,1.26537541 183.642352,0.915694821 184.012205,0.837318137 C184.380049,0.756931794 184.822265,0.827269844 185.340863,1.04632263 C185.79715,1.24527883 186.092631,1.49246683 186.221275,1.79190596 C186.35193,2.09134509 186.305698,2.48925748 186.088611,2.98765281 L192.090688,2.98765281 C192.669589,2.98765281 193.107785,3.09617437 193.407286,3.31522715 C193.704777,3.53427994 193.853522,3.92214404 193.853522,4.48082913 C193.853522,5.01740796 193.704777,5.37713685 193.407286,5.5539868 C193.107785,5.73485607 192.669589,5.82328105 192.090688,5.82328105 L184.355928,5.82328105 C184.016225,6.26138662 183.642352,6.69547287 183.234307,7.12353015 C182.826262,7.55158742 182.472489,7.88519075 182.174999,8.12434012 L182.174999,8.12434012 Z" id="Fill-28"></path>
                <path d="M247.833427,11.3494402 L244.191175,11.3494402 L244.191175,14.3659377 L246.758038,14.3659377 C247.216335,14.3659377 247.509806,14.2775127 247.63845,14.0966435 C247.769105,13.9177838 247.833427,13.6002578 247.833427,13.1420556 L247.833427,11.3494402 Z M247.833427,6.21275288 C247.833427,5.85503366 247.759055,5.60583599 247.610309,5.46515989 C247.459554,5.32649345 247.156033,5.2561554 246.699746,5.2561554 L244.191175,5.2561554 L244.191175,8.36308755 L247.833427,8.36308755 L247.833427,6.21275288 Z M237.915728,13.4394851 C237.915728,14.0584599 238.195128,14.3659377 238.751918,14.3659377 L241.29064,14.3659377 L241.29064,11.3494402 L237.915728,11.3494402 L237.915728,13.4394851 Z M237.915728,8.36308755 L241.29064,8.36308755 L241.29064,5.2561554 L238.842371,5.2561554 C238.484578,5.2561554 238.241359,5.31242584 238.110705,5.42094741 C237.98206,5.52946897 237.915728,5.74450244 237.915728,6.06403815 L237.915728,8.36308755 Z M237.738841,17.5030147 C236.681543,17.5030147 235.969977,17.2538171 235.600124,16.7554217 C235.23228,16.2570264 235.049364,15.4712499 235.049364,14.3960826 L235.049364,5.2561554 C235.049364,4.16089148 235.23228,3.37511498 235.600124,2.89681624 C235.969977,2.42052716 236.681543,2.18137779 237.738841,2.18137779 L247.923881,2.18137779 C248.938967,2.18137779 249.654553,2.42052716 250.072649,2.89681624 C250.492754,3.37511498 250.701801,4.16089148 250.701801,5.2561554 L250.701801,14.3960826 C250.701801,15.4712499 250.492754,16.2570264 250.072649,16.7554217 C249.654553,17.2538171 248.938967,17.5030147 247.923881,17.5030147 L244.191175,17.5030147 L244.191175,19.8904891 L249.537969,19.8904891 C250.072649,19.8904891 250.462603,20.0010203 250.701801,20.2200731 C250.941,20.4391259 251.059594,20.8470866 251.059594,21.4439552 C251.059594,22.0227369 250.941,22.4306975 250.701801,22.6678373 C250.462603,22.9069866 250.072649,23.0275661 249.537969,23.0275661 L244.191175,23.0275661 L244.191175,25.865204 L250.641499,25.865204 C251.2204,25.865204 251.646536,25.9837739 251.925936,26.2229233 C252.205336,26.4620726 252.344031,26.8700333 252.344031,27.4468053 C252.344031,28.5018761 251.77719,29.0304163 250.641499,29.0304163 L234.780014,29.0304163 C233.624222,29.0304163 233.047331,28.5018761 233.047331,27.4468053 C233.047331,26.8700333 233.192056,26.4620726 233.479497,26.2229233 C233.768947,25.9837739 234.203123,25.865204 234.780014,25.865204 L241.29064,25.865204 L241.29064,23.0275661 L236.183045,23.0275661 C235.606154,23.0275661 235.208159,22.9069866 234.987051,22.6678373 C234.769963,22.4306975 234.659409,22.0227369 234.659409,21.4439552 C234.659409,20.8470866 234.769963,20.4391259 234.987051,20.2200731 C235.208159,20.0010203 235.606154,19.8904891 236.183045,19.8904891 L241.29064,19.8904891 L241.29064,17.5030147 L237.738841,17.5030147 Z M233.823219,22.3402629 C234.022216,22.8185617 234.038297,23.2667155 233.869451,23.6847245 C233.698595,24.1027335 233.415174,24.4504044 233.01718,24.729747 C232.498581,25.1477559 231.91566,25.5557166 231.270426,25.953629 C230.621173,26.3515414 229.963879,26.7193089 229.296535,27.0589412 C228.629191,27.3965639 227.987977,27.696003 227.370885,27.955249 C226.753793,28.2144949 226.225143,28.4134511 225.786948,28.5521176 C225.091462,28.8314601 224.613065,28.8595953 224.353766,28.6405425 C224.094466,28.4234994 223.885419,28.0135291 223.726623,27.4166605 C223.567827,26.8981686 223.616069,26.4319278 223.875368,26.0139188 C224.134668,25.5959098 224.512561,25.306519 225.011059,25.1477559 C225.348752,25.047273 225.698504,24.9186549 226.056297,24.7598918 C226.4161,24.5991191 226.844246,24.4102112 227.342744,24.1911585 L227.342744,16.606707 L225.638202,16.606707 C225.081412,16.606707 224.707538,16.4459343 224.518592,16.1284083 C224.329645,15.8088726 224.235171,15.3808153 224.235171,14.8442364 C224.235171,14.2674644 224.319594,13.8333782 224.48844,13.5439873 C224.657287,13.2566062 225.041211,13.1119108 225.638202,13.1119108 L227.342744,13.1119108 L227.342744,6.63076187 L225.429155,6.63076187 C224.850254,6.63076187 224.46834,6.46596986 224.279393,6.13839552 C224.088436,5.80881151 223.995973,5.38678321 223.995973,4.8682913 C223.995973,4.29151929 224.086426,3.85341372 224.263312,3.55397459 C224.444219,3.25654512 224.832163,3.10582073 225.429155,3.10582073 L232.450339,3.10582073 C233.007129,3.10582073 233.387033,3.25654512 233.58402,3.55397459 C233.785028,3.85341372 233.883521,4.29151929 233.883521,4.8682913 C233.883521,5.38678321 233.768947,5.80881151 233.539799,6.13839552 C233.31065,6.46596986 232.946827,6.63076187 232.450339,6.63076187 L230.508609,6.63076187 L230.508609,13.1119108 L232.090536,13.1119108 C232.667427,13.1119108 233.051351,13.2566062 233.240298,13.5439873 C233.431255,13.8333782 233.525728,14.2674644 233.525728,14.8442364 C233.525728,15.3808153 233.421205,15.8088726 233.212157,16.1284083 C233.001099,16.4459343 232.629236,16.606707 232.090536,16.606707 L230.508609,16.606707 L230.508609,22.4588328 C230.667405,22.3603595 230.81615,22.2598766 230.956855,22.1614033 C231.09555,22.0609204 231.224195,21.9624471 231.344799,21.8619642 C231.863398,21.4640518 232.339785,21.3133274 232.777981,21.4138103 C233.216177,21.5142932 233.56392,21.821771 233.823219,22.3402629 L233.823219,22.3402629 Z" id="Fill-30"></path>
                <path d="M293.297659,9.88640875 C293.038359,10.8430062 292.684586,11.803623 292.23835,12.7682591 C291.788094,13.7349049 291.305676,14.6754251 290.789088,15.5898198 C289.930786,17.1633824 288.9157,17.6215846 287.739807,16.9644262 C287.084523,16.6850837 286.760901,16.3112872 286.770952,15.8430368 C286.781002,15.376796 286.98402,14.8241399 287.384024,14.1870781 C287.661414,13.7690691 287.908653,13.3651277 288.129761,12.9772636 C288.348859,12.5893995 288.547856,12.1894775 288.728763,11.7815168 C288.905649,11.3755658 289.080526,10.9314312 289.249372,10.4531325 C289.418218,9.97483373 289.603145,9.4282066 289.802142,8.81124141 C290.061441,8.01541662 290.334811,7.47682812 290.624262,7.19748558 C290.911702,6.91814304 291.376029,6.84981465 292.013222,6.98848109 C292.590113,7.06886743 293.022279,7.33213271 293.313739,7.78028657 C293.599169,8.22844043 293.595149,8.92981127 293.297659,9.88640875 L293.297659,9.88640875 Z M278.539703,14.5146524 C278.74071,15.1316176 278.788952,15.6601578 278.688449,16.0982634 C278.591965,16.536369 278.222112,16.8760013 277.584919,17.113141 C276.947725,17.3522903 276.443197,17.3723869 276.077364,17.1734307 C275.70751,16.9744745 275.373838,16.4258377 275.076348,15.5315397 C274.658252,14.2775127 274.254228,13.1922971 273.866284,12.2738831 C273.47834,11.3594885 273.114516,10.5636637 272.774814,9.88640875 C272.37682,9.10867088 272.246165,8.50778297 272.38687,8.07972569 C272.525565,7.65166842 272.823056,7.29796851 273.283363,7.01862597 C273.840153,6.74129309 274.342671,6.68100333 274.790917,6.83976636 C275.241174,6.99852938 275.671329,7.52706959 276.089424,8.42136765 C276.549731,9.43825489 276.977877,10.4189683 277.375871,11.3635078 C277.773865,12.310057 278.161809,13.3611084 278.539703,14.5146524 L278.539703,14.5146524 Z M271.998926,6.45190225 C271.399924,6.45190225 270.957708,6.31323581 270.668258,6.03389327 C270.380817,5.75455073 270.236092,5.29634857 270.236092,4.65928681 C270.236092,3.96193528 270.380817,3.48363654 270.668258,3.22640025 C270.957708,2.96715429 271.399924,2.83853614 271.998926,2.83853614 L293.657462,2.83853614 C294.254453,2.83853614 294.700689,2.96715429 295.00019,3.22640025 C295.299691,3.48363654 295.448437,3.96193528 295.448437,4.65928681 C295.448437,5.29634857 295.303711,5.75455073 295.014261,6.03389327 C294.72682,6.31323581 294.282594,6.45190225 293.685603,6.45190225 L284.694546,6.45190225 L284.694546,17.8004442 L295.357983,17.8004442 C295.954975,17.8004442 296.399201,17.9290624 296.688652,18.1883083 C296.976092,18.4475543 297.120817,18.925853 297.120817,19.6232045 C297.120817,20.2602663 296.976092,20.7184684 296.688652,20.9958013 C296.399201,21.2751439 295.954975,21.4138103 295.357983,21.4138103 L284.694546,21.4138103 L284.694546,27.9853938 C284.694546,28.6224556 284.545801,29.0685998 284.2463,29.3278458 C283.948809,29.5870917 283.478452,29.7177195 282.843269,29.7177195 C282.264368,29.7177195 281.812102,29.59714 281.48245,29.3579906 C281.154808,29.1188413 280.989982,28.6606391 280.989982,27.9853938 L280.989982,21.4138103 L270.324535,21.4138103 C269.727544,21.4138103 269.285327,21.2751439 268.995877,20.9958013 C268.708437,20.7184684 268.563711,20.2602663 268.563711,19.6232045 C268.563711,18.925853 268.708437,18.4475543 268.995877,18.1883083 C269.285327,17.9290624 269.727544,17.8004442 270.324535,17.8004442 L280.989982,17.8004442 L280.989982,6.45190225 L271.998926,6.45190225 Z" id="Fill-32"></path>
                <path d="M335.62698,19.8609471 C335.62698,19.4831313 335.387781,19.2942234 334.911394,19.2942234 L321.01777,19.2942234 C320.561484,19.2942234 320.332335,19.4831313 320.332335,19.8609471 L320.332335,24.4007658 C320.332335,24.599722 320.376557,24.7444175 320.46701,24.8348521 C320.555453,24.9232771 320.74038,24.9694992 321.01777,24.9694992 L334.911394,24.9694992 C335.387781,24.9694992 335.62698,24.7785817 335.62698,24.4007658 L335.62698,19.8609471 Z M339.120487,25.2066389 C339.120487,25.8437007 339.082295,26.3722409 339.001892,26.7902499 C338.9235,27.2082589 338.764704,27.5458815 338.523495,27.8051275 C338.284296,28.0643734 337.940574,28.243233 337.494338,28.343716 C337.046092,28.4421892 336.45312,28.4924307 335.717433,28.4924307 L320.153439,28.4924307 C319.455943,28.4924307 318.889103,28.4421892 318.450907,28.343716 C318.010701,28.243233 317.666979,28.0744217 317.41974,27.8352723 C317.170491,27.596123 317.001644,27.2685486 316.911191,26.8505396 C316.822748,26.4325307 316.776516,25.8939422 316.776516,25.2367838 L316.776516,19.1133541 C316.776516,18.478302 316.822748,17.9437329 316.911191,17.5156756 C317.001644,17.089628 317.170491,16.7459764 317.41974,16.4867304 C317.666979,16.2274844 318.010701,16.0446055 318.450907,15.9340743 C318.889103,15.8255527 319.455943,15.7692823 320.153439,15.7692823 L335.685272,15.7692823 C336.342566,15.7692823 336.891316,15.8134948 337.329512,15.9039294 C337.765698,15.994364 338.121481,16.1631754 338.39083,16.412373 C338.65817,16.6615707 338.849127,17.0052223 338.957671,17.4413182 C339.066215,17.8794238 339.120487,18.4381089 339.120487,19.1133541 L339.120487,25.2066389 Z M331.355575,6.95893911 C330.857077,6.48064037 330.567626,6.00234163 330.487224,5.52605255 C330.408831,5.04775381 330.607828,4.54935848 331.086225,4.03287623 C331.464119,3.71334052 331.882214,3.5445292 332.340511,3.52443261 C332.798807,3.50433603 333.345547,3.80377515 333.98475,4.42074033 C334.680236,5.11809186 335.329489,5.77525021 335.924471,6.39221539 C336.521462,7.00918057 337.104384,7.62614576 337.673234,8.24311094 C338.240075,8.86007612 338.802895,9.49713788 339.359685,10.1542962 C339.918486,10.8114546 340.495377,11.5289027 341.094378,12.3046309 C341.532574,12.8834126 341.761723,13.3797982 341.781823,13.7978072 C341.799914,14.2158162 341.522524,14.6539218 340.945633,15.1121239 C340.427034,15.4899397 339.962707,15.6507124 339.554663,15.5904227 C339.146618,15.5301329 338.712442,15.2126069 338.256155,14.6338252 C338.014947,14.3343861 337.787808,14.0409759 337.56871,13.7535947 C337.347602,13.4642039 337.130515,13.180842 336.911417,12.9035092 L317.136319,13.858097 C316.33832,13.8380004 315.691077,13.6490925 315.194589,13.2893636 C314.696091,12.9316444 314.446842,12.4654036 314.446842,11.8866219 C314.446842,11.4485164 314.571466,11.0204591 314.820715,10.6024501 C315.067954,10.1844411 315.453888,9.8066253 315.972487,9.46699301 C316.728274,8.99070392 317.508183,8.4581444 318.316232,7.86931444 C319.122271,7.28249414 319.92429,6.66150964 320.720279,6.00234163 C321.516268,5.34518328 322.298187,4.66390902 323.066034,3.9565092 C323.831872,3.25111905 324.553488,2.53769025 325.230883,1.8222518 C325.68918,1.28366331 326.151496,0.986233837 326.621853,0.92594408 C327.08819,0.865654323 327.512316,0.966137251 327.888199,1.22538321 C328.209811,1.44443599 328.426899,1.68358536 328.547503,1.94082166 C328.666098,2.20006761 328.716349,2.45931357 328.696249,2.71855953 C328.676148,2.97780548 328.601775,3.22499348 328.47112,3.46414285 C328.342476,3.70329222 328.18971,3.91229672 328.008804,4.09115633 C326.973616,5.12613049 325.918328,6.08272797 324.842939,6.95893911 C323.76755,7.83515025 322.541405,8.75155456 321.168526,9.70614238 C320.710229,9.98548492 320.525302,10.1301803 320.615755,10.1402286 C320.706209,10.1502769 320.969528,10.1542962 321.407724,10.1542962 C323.558502,10.055823 325.679129,9.97141731 327.771615,9.90107926 C329.862091,9.83074121 331.962617,9.75638384 334.075204,9.67800716 C333.655098,9.219805 333.222933,8.76964148 332.774687,8.33354557 C332.32443,7.89544 331.852063,7.44728614 331.355575,6.98908399 L331.355575,6.95893911 Z" id="Fill-34"></path>
            </g>
        </g>
    </g>
</svg>