<svg xmlns="http://www.w3.org/2000/svg" xmlns:xlink="http://www.w3.org/1999/xlink" width="960" height="960" viewBox="0 0 960 960"><defs><style>.cls-1,.cls-30,.cls-31,.cls-32{fill:none;}.cls-2,.cls-37{fill:#fff;}.cls-3{fill:#ffd11d;}.cls-4{opacity:0.57;}.cls-5{clip-path:url(#clip-path);}.cls-6{fill:url(#linear-gradient);}.cls-7{fill:url(#linear-gradient-2);}.cls-8{fill:url(#linear-gradient-3);}.cls-9{fill:url(#linear-gradient-4);}.cls-10{fill:url(#linear-gradient-5);}.cls-11{fill:url(#linear-gradient-6);}.cls-12{fill:#b0b0b0;}.cls-13{fill:url(#linear-gradient-7);}.cls-14{fill:#161d21;}.cls-15{fill:#dcfffe;}.cls-16{fill:#e6e7e8;}.cls-17{fill:#dee0df;}.cls-18{fill:#70bad9;}.cls-19{fill:#4f9eb6;}.cls-20{fill:#3d3b3c;}.cls-21{fill:#cce6e0;}.cls-22{fill:#1c5572;}.cls-23{fill:#da4036;}.cls-24{fill:#e95149;}.cls-25{fill:#be141c;}.cls-26{fill:#ece2e9;}.cls-27{fill:#de4d31;}.cls-28{fill:#2abcb2;}.cls-29{opacity:0.1;}.cls-30,.cls-31,.cls-32{stroke:#bcbec0;stroke-miterlimit:10;stroke-width:2.12px;}.cls-31{stroke-dasharray:5.23 5.23;}.cls-32{stroke-dasharray:5.29;}.cls-33{fill:#f9f9f9;}.cls-34{fill:#f76031;}.cls-35{fill:#ebe5ee;}.cls-36{fill:#27557d;}.cls-37{opacity:0.2;}.cls-38{fill:#f0ecec;}.cls-39{fill:#e3c08a;}.cls-40{fill:#c8a679;}.cls-41{fill:#f3f5fa;}.cls-42{fill:#c7c8cc;}.cls-43{fill:#c2a077;}</style><clipPath id="clip-path"><circle class="cls-1" cx="490.1" cy="481" r="330.32"/></clipPath><linearGradient id="linear-gradient" x1="490.1" y1="234.43" x2="490.1" y2="417.91" gradientUnits="userSpaceOnUse"><stop offset="0" stop-color="#f2f9f8"/><stop offset="0.2" stop-color="#edf8f6"/><stop offset="0.46" stop-color="#ddf4f1"/><stop offset="0.53" stop-color="#d7f2ef"/><stop offset="0.59" stop-color="#cfeef0"/><stop offset="0.67" stop-color="#b9e4f2"/><stop offset="0.78" stop-color="#95d3f6"/><stop offset="0.9" stop-color="#63bbfa"/><stop offset="1" stop-color="#35a5ff"/></linearGradient><linearGradient id="linear-gradient-2" x1="490.1" y1="278.49" x2="490.1" y2="535.95" xlink:href="#linear-gradient"/><linearGradient id="linear-gradient-3" x1="490.1" y1="393.69" x2="490.1" y2="624.02" xlink:href="#linear-gradient"/><linearGradient id="linear-gradient-4" x1="490.1" y1="507.53" x2="490.1" y2="747.63" xlink:href="#linear-gradient"/><linearGradient id="linear-gradient-5" x1="490.1" y1="624.02" x2="490.1" y2="837.56" xlink:href="#linear-gradient"/><linearGradient id="linear-gradient-6" x1="490.1" y1="665.16" x2="490.1" y2="870.83" xlink:href="#linear-gradient"/><linearGradient id="linear-gradient-7" x1="522.37" y1="610.98" x2="522.37" y2="610.8" gradientUnits="userSpaceOnUse"><stop offset="0.02" stop-color="#5f6767"/><stop offset="0.48" stop-color="#676b6c"/><stop offset="0.51" stop-color="#717576"/><stop offset="0.62" stop-color="#878a8b"/><stop offset="0.72" stop-color="#949899"/><stop offset="0.81" stop-color="#999c9d"/></linearGradient></defs><title>vvv</title><g id="Layer_2" data-name="Layer 2"><path class="cls-2" d="M63.4,486.13C62.05,369.63,108,253,200,167.79S411.75,45.7,527.8,55.94l3.1-2.87c-8.08-.76-16.21-1.32-24.38-1.64C391.79,47,282.2,87.6,198,165.63s-133,184.2-137.44,298.94c-.31,8.17-.37,16.32-.23,24.43Z"/><path class="cls-2" d="M858.64,265.43l2.3-2.13A434.35,434.35,0,0,0,702.71,107.15l-2.4,2.22A427.39,427.39,0,0,1,858.64,265.43Z"/><path class="cls-2" d="M913.55,427.81c16.38,131.82-28.64,269.44-133.31,366.4-172.7,160-443.36,149.63-603.34-23.07a425.35,425.35,0,0,1-73.38-108.93l-2.4,2.23a431.09,431.09,0,0,0,73.62,108.71c78,84.24,184.2,133.05,298.94,137.44S698,874.41,782.25,796.37s133-184.2,137.43-298.95a435.31,435.31,0,0,0-3.24-72.29Z"/><path class="cls-2" d="M179.79,310.9a353.47,353.47,0,0,1,48-67.44c128.3-141.67,346-155.2,490.84-32.59l1.9-2.1a356.65,356.65,0,0,0-494.83,32.79,359.21,359.21,0,0,0-49.27,69.33Z"/><path class="cls-2" d="M137,460.6h-3a363,363,0,0,0-.13,38A354.18,354.18,0,0,0,242,737.22l1.9-2.1C167.44,661.12,131.35,560.08,137,460.6Z"/><path class="cls-2" d="M803.81,310.9q-5.38-9.91-11.4-19.47l-2.08,2.29q5.28,8.47,10,17.18Z"/><path class="cls-2" d="M846.2,460.6h-3a352.71,352.71,0,0,1-90.79,257.94c-108.45,119.75-280.81,147.92-419,79.72l-2.07,2.29a356.81,356.81,0,0,0,515-337.19C846.31,462.44,846.25,461.52,846.2,460.6Z"/><path class="cls-2" d="M638.21,836.42c5.21-2.17,10.43-4.49,15.52-6.89L652.52,827c-5.05,2.38-10.24,4.69-15.4,6.84Z"/><path class="cls-2" d="M184.16,709.65l-2.26,1.69c3.37,4.52,6.88,9,10.43,13.37l2.19-1.78C191,718.6,187.5,714.14,184.16,709.65Z"/><path class="cls-2" d="M165.27,681.81l-2.41,1.48c2.95,4.78,6,9.57,9.2,14.23l2.34-1.59C171.27,691.32,168.19,686.56,165.27,681.81Z"/><path class="cls-2" d="M124.31,589.69l-2.71.79c1.59,5.42,3.31,10.86,5.13,16.19l2.67-.91C127.6,600.47,125.88,595.07,124.31,589.69Z"/><path class="cls-2" d="M229,759.85,227,761.9c4.1,3.85,8.35,7.67,12.63,11.35l1.84-2.14C237.26,767.46,233,763.67,229,759.85Z"/><path class="cls-2" d="M148.9,652.39l-2.53,1.26c2.52,5,5.18,10.1,7.92,15l2.47-1.37C154,662.41,151.4,657.39,148.9,652.39Z"/><path class="cls-2" d="M135.21,621.59l-2.63,1c2.06,5.25,4.26,10.52,6.55,15.67l2.58-1.15C139.44,632,137.26,626.8,135.21,621.59Z"/><path class="cls-2" d="M606.32,848.09c5.37-1.7,10.78-3.54,16.07-5.48l-1-2.65c-5.25,1.92-10.62,3.76-16,5.44Z"/><path class="cls-2" d="M539.71,860l.37,2.8c5.59-.74,11.24-1.6,16.79-2.58l-.49-2.78C550.87,858.4,545.26,859.26,539.71,860Z"/><path class="cls-2" d="M572.92,854.14l.61,2.76c5.51-1.22,11.06-2.58,16.5-4l-.73-2.73C583.89,851.58,578.38,852.93,572.92,854.14Z"/><path class="cls-2" d="M254.54,781.81,252.79,784c4.43,3.48,9,6.91,13.58,10.2l1.64-2.3C263.48,788.67,258.94,785.27,254.54,781.81Z"/><path class="cls-2" d="M281.94,801.45l-1.54,2.37c4.72,3.08,9.58,6.1,14.43,9l1.44-2.43C291.45,807.51,286.63,804.51,281.94,801.45Z"/><path class="cls-2" d="M352,837.43c-3.54-1.38-7.08-2.8-10.56-4.28l-1.1,2.6c4,1.69,8,3.3,12.08,4.86Z"/><path class="cls-2" d="M311,818.62l-1.33,2.49c5,2.65,10.08,5.23,15.17,7.66l1.22-2.55C321,823.81,315.92,821.25,311,818.62Z"/><path class="cls-2" d="M205.45,735.73l-2.11,1.88c3.75,4.2,7.65,8.37,11.58,12.41l2-2C213,744,209.18,739.9,205.45,735.73Z"/><path class="cls-2" d="M195.46,240.24l-2.18-1.79c-3.59,4.36-7.11,8.86-10.48,13.36L185,253.5C188.4,249,191.9,244.57,195.46,240.24Z"/><path class="cls-2" d="M240.74,190c-4.27,3.65-8.53,7.46-12.65,11.31l1.93,2.06c4.09-3.82,8.32-7.6,12.56-11.22Z"/><path class="cls-2" d="M215.94,213.18c-3.94,4-7.84,8.18-11.61,12.38l2.1,1.89c3.74-4.17,7.62-8.3,11.53-12.29Z"/><path class="cls-2" d="M265,170.89c-3.77,2.73-7.52,5.53-11.18,8.38l1.74,2.23c3.23-2.52,6.53-5,9.86-7.42Z"/><path class="cls-2" d="M423.22,106.87l-.49-2.78c-5,.89-10.05,1.9-15,3l.37,2.81C413.08,108.78,418.17,107.76,423.22,106.87Z"/><path class="cls-2" d="M506.29,862.92l.36,2.81c5.5-.25,11.07-.61,16.55-1.09l-.25-2.82C517.43,862.31,511.82,862.67,506.29,862.92Z"/><path class="cls-2" d="M172.9,265.61c-3.18,4.65-6.3,9.44-9.27,14.24l2.4,1.49c3-4.76,6-9.51,9.21-14.13Z"/><path class="cls-2" d="M155,294.48c-2.76,4.91-5.44,10-8,15l2.52,1.27c2.53-5,5.19-10,7.93-14.9Z"/><path class="cls-2" d="M117.39,389c-1.37,5.48-2.64,11.06-3.76,16.6l2.77.56c1.12-5.5,2.37-11,3.73-16.48Z"/><path class="cls-2" d="M139.68,324.83c-2.32,5.15-4.55,10.42-6.63,15.66l2.62,1c2.07-5.2,4.29-10.43,6.59-15.54Z"/><path class="cls-2" d="M127.11,356.43c-1.85,5.33-3.61,10.78-5.22,16.19l2.71.81c1.6-5.37,3.34-10.78,5.18-16.07Z"/><path class="cls-2" d="M858,592c1.62-5.42,3.14-10.94,4.52-16.41l-2.74-.69c-1.36,5.43-2.87,10.91-4.48,16.29Z"/><path class="cls-2" d="M838.46,327.46l2.58-1.14c-2.28-5.15-4.71-10.32-7.23-15.37l-2.53,1.26C833.78,317.22,836.19,322.35,838.46,327.46Z"/><path class="cls-2" d="M785.75,241.62l2.19-1.79c-3.56-4.37-7.26-8.71-11-12.91l-2.11,1.88C778.54,233,782.21,237.28,785.75,241.62Z"/><path class="cls-2" d="M668.93,821.95c5-2.62,10-5.39,14.81-8.22l-1.42-2.44c-4.82,2.82-9.76,5.57-14.7,8.17Z"/><path class="cls-2" d="M805.83,268.63l2.34-1.58c-3.15-4.66-6.45-9.31-9.81-13.82l-2.27,1.69C799.42,259.39,802.7,264,805.83,268.63Z"/><path class="cls-2" d="M491.14,100.94V98.11c-5.63,0-11.34.11-17,.35l.12,2.82C479.88,101,485.55,100.93,491.14,100.94Z"/><path class="cls-2" d="M439.88,104.29l.82-.11c5.56-.73,11.2-1.34,16.76-1.82l-.24-2.81c-5.6.48-11.28,1.1-16.89,1.83l-.81.11Z"/><path class="cls-2" d="M524.81,102.49l.26-2.81c-5.61-.51-11.32-.9-16.94-1.16l-.13,2.82C513.58,101.6,519.24,102,524.81,102.49Z"/><path class="cls-2" d="M623.28,125l1-2.65c-5.31-2-10.71-3.87-16.07-5.61l-.87,2.69C612.65,121.12,618,123,623.28,125Z"/><path class="cls-2" d="M591.16,114.55l.75-2.72c-5.43-1.5-11-2.9-16.51-4.16l-.63,2.76C580.25,111.67,585.76,113.06,591.16,114.55Z"/><path class="cls-2" d="M558.21,107l.51-2.78c-5.56-1-11.2-1.91-16.78-2.66l-.38,2.8C547.1,105.14,552.7,106,558.21,107Z"/><path class="cls-2" d="M823.44,297.29l2.47-1.37c-2.73-4.92-5.61-9.85-8.55-14.63L815,282.76C817.87,287.51,820.73,292.4,823.44,297.29Z"/><path class="cls-2" d="M775.4,739c3.77-4.19,7.49-8.52,11.07-12.87l-2.18-1.79c-3.55,4.32-7.25,8.62-11,12.78Z"/><path class="cls-2" d="M797,712.76c3.38-4.5,6.72-9.15,9.9-13.8l-2.33-1.59c-3.17,4.62-6.47,9.23-9.83,13.7Z"/><path class="cls-2" d="M816.16,684.73c3-4.79,5.89-9.71,8.66-14.62l-2.46-1.39c-2.74,4.88-5.63,9.76-8.59,14.52Z"/><path class="cls-2" d="M698.18,804.84c4.71-3,9.44-6.25,14-9.51l-1.63-2.3c-4.56,3.24-9.25,6.42-13.93,9.44Z"/><path class="cls-2" d="M832.82,655.11c2.55-5,5-10.2,7.34-15.34l-2.58-1.16c-2.3,5.1-4.75,10.23-7.28,15.22Z"/><path class="cls-2" d="M725.81,785.21c4.43-3.45,8.85-7.06,13.14-10.72l-1.83-2.15c-4.26,3.63-8.65,7.22-13.05,10.64Z"/><path class="cls-2" d="M751.61,763.19c4.12-3.85,8.21-7.83,12.15-11.84l-2-2c-3.91,4-8,7.94-12.06,11.76Z"/><path class="cls-2" d="M866.72,424.28l2.79-.43c-.86-5.6-1.84-11.23-2.93-16.73l-2.78.55C864.89,413.14,865.87,418.72,866.72,424.28Z"/><path class="cls-2" d="M846.8,624.12c2.09-5.24,4.1-10.6,6-15.94l-2.67-.93c-1.84,5.3-3.83,10.62-5.91,15.82Z"/><path class="cls-2" d="M850.73,358.85l2.68-.91c-1.82-5.34-3.78-10.7-5.83-15.95l-2.63,1C847,348.23,848.93,353.56,850.73,358.85Z"/><path class="cls-2" d="M860.17,391.21l2.75-.67c-1.34-5.47-2.81-11-4.39-16.4l-2.71.79C857.38,380.31,858.84,385.79,860.17,391.21Z"/><path class="cls-2" d="M873.19,457.61c-.36-5.6-.86-11.29-1.47-16.92l-2.81.31c.61,5.59,1.1,11.24,1.46,16.79Z"/><path class="cls-2" d="M866.29,559c1.13-5.52,2.15-11.14,3-16.71l-2.79-.44c-.87,5.53-1.89,11.11-3,16.59Z"/><path class="cls-2" d="M871.6,525.44c.63-5.6,1.15-11.29,1.53-16.91l-2.82-.19c-.38,5.58-.89,11.23-1.51,16.79Z"/><path class="cls-2" d="M873.9,491.56c.13-5.64.14-11.35,0-17l-2.82.06c.12,5.59.11,11.26,0,16.86Z"/><circle class="cls-2" cx="820.43" cy="141.93" r="8.92"/><circle class="cls-2" cx="60.22" cy="581.98" r="16.59"/></g><g id="Layer_1" data-name="Layer 1"><circle class="cls-3" cx="490.1" cy="481" r="330.32"/><g class="cls-4"><g class="cls-5"><path class="cls-6" d="M913.65,417.91V247.14a100.67,100.67,0,0,0-68.29,61.69,53.7,53.7,0,0,0-86.25-10.55,100.44,100.44,0,0,0-193.9,32.52,44.87,44.87,0,0,0-47.37,18.83,70.33,70.33,0,0,0-123.45-22.1,78.75,78.75,0,0,0-154.53,6.39,44.93,44.93,0,0,0-68-5,56.16,56.16,0,0,0-81.47-38.6,44.93,44.93,0,0,0-23.81-46.5V417.91Z"/><path class="cls-7" d="M913.65,536V400.09a71.9,71.9,0,0,0-77.39,11.73,101.22,101.22,0,0,0-158.38-56.55c.11-1.6.18-3.21.18-4.83a72,72,0,1,0-140.29,22.51,71.91,71.91,0,0,0-107.26,20.49,48.6,48.6,0,0,0-63.49-2,71.84,71.84,0,0,0-131.26,22.39A101.21,101.21,0,0,0,66.55,433.22V536Z"/><path class="cls-8" d="M913.65,624V430a117.82,117.82,0,0,0-65.87,92.55,76.82,76.82,0,0,0-120.86.6,83.26,83.26,0,0,0-75.25-47.62h-.18c.1-1.64.18-3.29.18-5A76.85,76.85,0,0,0,498,468.92a117.71,117.71,0,0,0-192.54,24.87,57.6,57.6,0,0,0-74.54-3.22,76.86,76.86,0,0,0-110.08-31.48,77,77,0,0,0-54.26-62.27V624Z"/><path class="cls-9" d="M913.65,747.63V557a55.9,55.9,0,0,0-65.21,44.09,55.88,55.88,0,0,0-71.14-8.38A85,85,0,0,0,625.75,562a76,76,0,0,0-148.92,19,55.91,55.91,0,0,0-82.61,19.67A85,85,0,0,0,298.61,576a55.92,55.92,0,0,0-106.44-33.25A85,85,0,0,0,66.55,529.26V747.63Z"/><path class="cls-10" d="M913.65,837.56V647.41a123,123,0,0,0-86.73,52.47A76.4,76.4,0,0,0,725.24,731.4a52.05,52.05,0,0,0-54.32-12.5,76.42,76.42,0,0,0-147.15-41.07,52,52,0,0,0-80.51,17,76.38,76.38,0,0,0-136.2,39.8,122.93,122.93,0,0,0-165.68-19.87A76.43,76.43,0,0,0,66.55,653.8V837.56Z"/><path class="cls-11" d="M913.65,870.83V665.16a65.07,65.07,0,0,0-34.48,67.34,81.33,81.33,0,0,0-118,55.9,65.06,65.06,0,0,0-98.53,7.27,114,114,0,0,0-223.78-9.25,101.84,101.84,0,0,0-178.77,32,65.06,65.06,0,0,0-83.53-21.89,101.64,101.64,0,0,0-110-72.84V870.83Z"/></g></g><path class="cls-12" d="M188.38,624.18s-3.66,6.8,22.3,12.47H754s18.17-1.16,23-9.73l0-4.7Z"/><path class="cls-2" d="M188.51,610.45H777.15v15.11s.88,2-6,1.52H194s-5.42,1.52-5.92-2Z"/><path class="cls-12" d="M749.8,619.28a1,1,0,0,1-.87,1.05h-20a1,1,0,0,1-.87-1.05h0a1,1,0,0,1,.87-1.08h20a1,1,0,0,1,.87,1.08Z"/><path class="cls-12" d="M442.85,610.56s-2.27,7.57,5.29,8.32h68.29s7.26.94,6.29-8.06Z"/><path class="cls-13" d="M522.37,611v-.18h0A1.66,1.66,0,0,0,522.37,611Z"/><path class="cls-14" d="M719.27,610.37V342.08a22.2,22.2,0,0,0-22.14-22.14h-429A22.2,22.2,0,0,0,246,342.08v268.3Z"/><rect class="cls-15" x="261.26" y="336.55" width="442.79" height="257.36"/><path class="cls-16" d="M481.1,441.61c0,.05,0,.11,0,.16V442s0-.09,0-.12c-.31,4.63-5.25,8.32-11.33,8.32H467c-6.2,0-11.24-3.84-11.35-8.6-.12,4.77-5.15,8.6-11.35,8.6h-2.7c-6.2,0-11.23-3.84-11.35-8.6-.12,4.76-5.15,8.6-11.35,8.6h-2.7c-6.2,0-11.23-3.83-11.35-8.6-.12,4.76-5.15,8.6-11.35,8.6h-2.7c-6.2,0-11.23-3.84-11.35-8.6-.12,4.76-5.15,8.6-11.35,8.6h-2.7c-6.19,0-11.22-3.82-11.35-8.58-.13,4.75-5.16,8.58-11.35,8.58H340c-6.19,0-11.21-3.82-11.35-8.58a7.2,7.2,0,0,1-.08.88c-.69,4.33-5.47,7.69-11.27,7.69h-2.8V556H494.33V450.22h-1.88C486.25,450.22,481.21,446.38,481.1,441.61Z"/><path class="cls-17" d="M314.52,409.09v41.13h2.8c5.8,0,10.58-3.36,11.27-7.69a7.2,7.2,0,0,0,.08-.88c.14,4.75,5.16,8.58,11.35,8.58h2.7c6.19,0,11.22-3.82,11.35-8.58.13,4.75,5.16,8.58,11.35,8.58h2.7c6.2,0,11.23-3.84,11.35-8.6.12,4.76,5.15,8.6,11.35,8.6h2.7c6.2,0,11.23-3.83,11.35-8.6.12,4.76,5.15,8.6,11.35,8.6h2.7c6.2,0,11.23-3.84,11.35-8.6.12,4.76,5.15,8.6,11.35,8.6h2.7c6.2,0,11.24-3.84,11.35-8.6.12,4.77,5.15,8.6,11.35,8.6h2.7c6.08,0,11-3.68,11.33-8.32,0,0,0,.08,0,.12v-.25c0-.05,0-.11,0-.16.12,4.77,5.15,8.6,11.35,8.6h1.88V409.09Z"/><polygon class="cls-18" points="336.04 442.93 336.04 537.85 336.92 537.85 472.44 442.93 336.04 442.93"/><polygon class="cls-19" points="336.92 537.85 472.81 537.85 472.81 442.93 472.44 442.93 336.92 537.85"/><path class="cls-20" d="M500.83,560.83a7.66,7.66,0,0,1-7.66,7.66H315.67a7.66,7.66,0,0,1-7.66-7.66h0a7.66,7.66,0,0,1,7.66-7.66h177.5a7.66,7.66,0,0,1,7.66,7.66Z"/><path class="cls-1" d="M437,479.89a7.11,7.11,0,0,1,3.88,6.25v29.29a7.34,7.34,0,0,1-7.51,7.14H375.46a7.76,7.76,0,0,1-3.51-.83,7.76,7.76,0,0,0,3.62.89h57.89a7.34,7.34,0,0,0,7.51-7.14V486.2A7.11,7.11,0,0,0,437,479.89Z"/><path class="cls-1" d="M433.36,522.58a7.34,7.34,0,0,0,7.51-7.14V486.14a7.11,7.11,0,0,0-3.88-6.25,7.76,7.76,0,0,0-3.51-.83H375.58a7.34,7.34,0,0,0-7.51,7.14v29.29a7.1,7.1,0,0,0,3.88,6.25,7.76,7.76,0,0,0,3.51.83ZM369.85,515V485.7a5.53,5.53,0,0,1,5.69-5.33h57.89a5.53,5.53,0,0,1,5.7,5.33V515a5.53,5.53,0,0,1-5.7,5.33H375.54A5.53,5.53,0,0,1,369.85,515Z"/><path class="cls-21" d="M433.43,520.32a5.53,5.53,0,0,0,5.7-5.33V485.7a5.53,5.53,0,0,0-5.7-5.33H375.54a5.53,5.53,0,0,0-5.69,5.33V515a5.53,5.53,0,0,0,5.69,5.33Z"/><path class="cls-22" d="M436.2,476.49H372.64a7.25,7.25,0,0,0-7.25,7.25v34a7.25,7.25,0,0,0,7.25,7.25H436.2a7.25,7.25,0,0,0,7.25-7.25v-34A7.25,7.25,0,0,0,436.2,476.49Zm4.78,39a7.34,7.34,0,0,1-7.51,7.14H375.58a7.76,7.76,0,0,1-3.62-.89,7.11,7.11,0,0,1-4-6.31V486.14a7.34,7.34,0,0,1,7.51-7.14h57.89a7.76,7.76,0,0,1,3.63.89,7.11,7.11,0,0,1,4,6.31Z"/><path class="cls-23" d="M368.07,515.49V486.2a7.34,7.34,0,0,1,7.51-7.14h57.89a7.76,7.76,0,0,1,3.51.83,7.76,7.76,0,0,0-3.63-.89H375.46a7.34,7.34,0,0,0-7.51,7.14v29.29a7.11,7.11,0,0,0,4,6.31A7.1,7.1,0,0,1,368.07,515.49Z"/><polygon class="cls-23" points="411.3 502.97 417.7 502.97 417.7 498.99 411.3 498.99 411.3 494.5 418.08 494.5 418.08 490.48 407.35 490.48 407.35 512.13 418.45 512.13 418.45 508.11 411.3 508.11 411.3 502.97"/><path class="cls-23" d="M432.5,496.81c0,3.24.08,6.17.34,9h-.08a70.49,70.49,0,0,0-2.84-7.42l-3.61-7.93h-4.59v21.64h3.61v-6.52c0-3.53-.05-6.58-.15-9.44l.08,0c.85,2.53,2,5.33,3,7.64l3.72,8.35h4.13V490.48H432.5Z"/><path class="cls-23" d="M402.4,492.05c-1.16-1.16-2.89-1.73-5.32-1.73a25.89,25.89,0,0,0-5.31.45v21.35h3.89v-7.74a8.05,8.05,0,0,0,1.34.1,7.11,7.11,0,0,0,5.65-2.28,7.9,7.9,0,0,0,1.6-5.14A7,7,0,0,0,402.4,492.05ZM397,500.72a4.89,4.89,0,0,1-1.32-.13v-6.39a5.47,5.47,0,0,1,1.63-.19,2.85,2.85,0,0,1,3.07,3.18A3.19,3.19,0,0,1,397,500.72Z"/><path class="cls-23" d="M380.34,490.13c-5.13,0-8.46,4.85-8.46,11.34,0,6.17,3,11,8.18,11s8.54-4.3,8.54-11.4C388.59,495.11,385.68,490.13,380.34,490.13Zm-.08,18.46c-2.63,0-4.23-3-4.23-7.23s1.55-7.35,4.21-7.35,4.21,3.34,4.21,7.22C384.44,505.45,382.92,508.59,380.26,508.59Z"/><path class="cls-2" d="M399.65,466.25a3.91,3.91,0,0,0,5.48-.15l17.4,10.38h5.89l-22.19-13.24a3.92,3.92,0,0,0-7.84.13s0,.05,0,.08l-19.2,13h5.37Z"/><circle class="cls-23" cx="402.27" cy="463.37" r="4.06"/><polygon class="cls-1" points="345.08 399.35 345.08 399.07 345.07 398.99 345.06 399.35 345.08 399.35"/><path class="cls-1" d="M320.56,425.91c0,.24-.06.48-.11.72s.07.29.1.44c0-.15.08-.29.11-.44S320.59,426.15,320.56,425.91Z"/><polygon class="cls-1" points="344.32 422.76 345.08 399.35 345.06 399.35 344.32 422.76"/><polygon class="cls-1" points="416.45 399.98 416.45 400.22 416.51 400.23 416.51 399.98 416.45 399.98"/><polygon class="cls-1" points="464.14 400.63 458.89 392.67 464.14 400.67 464.14 400.63"/><path class="cls-24" d="M320.56,425.91c0-.2,0-.4-.05-.6s0-.56,0-.85l.77-25.44-23.81-.33-.77,25.44a11.56,11.56,0,0,0,11.4,11.72l1.11,0a11.55,11.55,0,0,0,11.37-8.8c0-.15-.07-.29-.1-.44S320.53,426.15,320.56,425.91Z"/><path class="cls-2" d="M345.06,399.35,321.25,399l-.77,25.44c0,.29,0,.57,0,.85s0,.4.05.6.05.48.09.72-.07.29-.11.44a11.55,11.55,0,0,0,11.13,9.11l1.11,0a11.75,11.75,0,0,0,11.88-10.51,11.53,11.53,0,0,1-.33-2.93Z"/><path class="cls-2" d="M320.48,424.47c0,.29,0,.57,0,.85C320.49,425,320.48,424.75,320.48,424.47Z"/><path class="cls-24" d="M368.88,399.68l-23.8-.33-.75,23.4a11.55,11.55,0,0,0,11.4,11.72h1.11a11.56,11.56,0,0,0,11.48-9.23,11.59,11.59,0,0,1-.18-2.17Z"/><path class="cls-2" d="M392.69,400l-23.81-.33-.74,23.4a11.57,11.57,0,0,0,11.4,11.72l1.11,0A11.56,11.56,0,0,0,392,426a11.79,11.79,0,0,1-.09-1.57Z"/><path class="cls-24" d="M416.51,400.34,392.69,400l-.75,24.46A11.79,11.79,0,0,0,392,426a11.56,11.56,0,0,0,11.31,10.15h1.11A11.56,11.56,0,0,0,415.93,427a11.63,11.63,0,0,1-.18-2.17Z"/><path class="cls-2" d="M440.32,400.67l-23.81-.33-.76,24.46a11.57,11.57,0,0,0,11.4,11.72h1.11a11.56,11.56,0,0,0,11.69-10.74,11.62,11.62,0,0,1-.35-3Z"/><path class="cls-24" d="M464.14,401l-23.81-.33-.72,22.14A11.55,11.55,0,0,0,451,434.52l1.11,0a11.56,11.56,0,0,0,11.38-8.78,11.66,11.66,0,0,1-.09-1.57Z"/><path class="cls-2" d="M487.95,401.32,464.14,401l-.74,23.2a11.57,11.57,0,0,0,11.4,11.72h1.11a11.56,11.56,0,0,0,11.48-9.23,11.59,11.59,0,0,1-.18-2.17Z"/><path class="cls-24" d="M487.95,401.32l-.74,23.2a11.56,11.56,0,0,0,11.4,11.72l1.11,0a11.56,11.56,0,0,0,11.72-11.4l.74-23.2Z"/><polygon class="cls-1" points="392.7 399.65 392.86 388.1 392.86 388.1 392.7 399.65 392.7 399.65"/><polygon class="cls-1" points="455.89 388.1 455.88 388.1 458.89 392.67 455.89 388.1"/><polygon class="cls-1" points="487.95 400.96 474.61 388.1 474.51 388.1 487.95 401.06 487.95 400.96"/><polygon class="cls-1" points="464.14 400.63 458.89 392.67 464.14 400.67 464.14 400.63"/><polygon class="cls-1" points="416.51 400.23 416.51 399.98 416.45 399.98 416.45 400.22 416.51 400.23"/><polygon class="cls-1" points="352.17 388.1 345.07 398.99 352.19 388.1 352.17 388.1"/><polygon class="cls-25" points="332 388.1 314.71 388.1 297.44 398.33 297.44 398.7 321.25 399.02 321.25 398.66 332 388.1"/><polygon class="cls-26" points="332 388.1 321.25 398.66 321.25 399.02 345.06 399.35 345.07 398.99 352.17 388.1 332 388.1"/><polygon class="cls-25" points="373.07 388.1 352.19 388.1 345.07 398.99 345.08 399.07 345.08 399.35 368.88 399.68 368.88 399.32 373.07 388.1"/><polygon class="cls-26" points="392.86 388.1 373.07 388.1 368.88 399.32 368.88 399.68 392.69 400.01 392.7 399.65 392.86 388.1"/><polygon class="cls-25" points="416.45 400.22 416.45 399.98 416.61 388.1 392.86 388.1 392.7 399.65 392.7 399.65 392.69 400.01 416.51 400.34 416.51 400.23 416.45 400.22"/><polygon class="cls-26" points="435.76 388.1 416.61 388.1 416.45 399.98 416.51 399.98 416.51 400.23 416.51 400.34 440.32 400.67 440.33 400.31 435.76 388.1"/><polygon class="cls-25" points="458.89 392.67 455.88 388.1 435.76 388.1 440.33 400.31 440.32 400.67 464.13 401 464.14 400.67 458.89 392.67"/><polygon class="cls-26" points="474.51 388.1 455.89 388.1 458.89 392.67 464.14 400.63 464.14 400.67 464.13 401 487.95 401.32 487.95 401.06 474.51 388.1"/><polygon class="cls-25" points="493.21 388.1 474.61 388.1 487.95 400.96 487.95 401.06 487.95 401.32 512.18 401.66 512.18 401.3 493.21 388.1"/><path class="cls-27" d="M641.82,500.9l-10.45-9.11-10.45-9.1-10.44,9.1L600,500.9h11.43c-3.85,23.64-25.7,42-50.56,38.12a.87.87,0,0,0-.46,1.68c30.94,10.77,66.59-6.92,71.74-39.8Zm0,0"/><path class="cls-28" d="M618.65,531.45A55.52,55.52,0,0,1,608,539.17v29.37h10.69Zm0,0"/><path class="cls-28" d="M591.92,568.54h10.69V541.79a58.59,58.59,0,0,1-10.69,3.39Zm0,0"/><path class="cls-28" d="M624,568.54h10.69v-65h-.27A51.49,51.49,0,0,1,624,525.71Zm0,0"/><path class="cls-28" d="M570.53,545.9a59.25,59.25,0,0,1-10.7-2.58v25.23h10.7Zm0,0"/><path class="cls-28" d="M575.87,568.54h10.7V546.08a62.08,62.08,0,0,1-7.43.45c-1.09,0-2.18,0-3.27-.1Zm0,0"/><path class="cls-28" d="M604.42,401.33V355.78A43.58,43.58,0,0,0,591.27,358,46.43,46.43,0,0,0,561.1,415.4Z"/><path class="cls-27" d="M626.22,410.15l-20.6-6.7-43.78,14.22c4.94,14.12,15.09,24,29.43,28.68a46.39,46.39,0,0,0,58.12-28.68Z"/><path class="cls-29" d="M633.87,365.35l-26.32,36.22,42.58,13.83A45.69,45.69,0,0,0,633.87,365.35Z"/><path d="M606.81,398.52l25.12-34.57a44,44,0,0,0-25.12-8.16Z"/><line class="cls-30" x1="528.7" y1="355.78" x2="528.7" y2="358.43"/><line class="cls-31" x1="528.7" y1="363.66" x2="528.7" y2="570.2"/><line class="cls-30" x1="528.7" y1="572.81" x2="528.7" y2="575.46"/><line class="cls-32" x1="676.94" y1="467.43" x2="528.7" y2="467.43"/><path class="cls-14" d="M739,224.36a15.66,15.66,0,0,1,15.67-15.66H885a15.66,15.66,0,0,1,15.67,15.66V439.44A15.67,15.67,0,0,1,885,455.11H754.67A15.67,15.67,0,0,1,739,439.44Z"/><rect class="cls-33" x="754.26" y="226.84" width="131.15" height="210.12"/><rect class="cls-34" x="754.26" y="225.15" width="131.15" height="9.9"/><path class="cls-35" d="M819.83,452.61a6.34,6.34,0,1,1,6.35-6.35A6.35,6.35,0,0,1,819.83,452.61Z"/><rect class="cls-12" x="809.38" y="404.25" width="20.92" height="20.47"/><rect class="cls-12" x="833.88" y="404.25" width="20.46" height="20.47"/><rect class="cls-12" x="858.15" y="404.25" width="20.47" height="20.47"/><rect class="cls-34" x="785.33" y="404.25" width="20.46" height="20.47"/><rect class="cls-12" x="761.07" y="404.25" width="20.46" height="20.47"/><path class="cls-2" d="M844.24,219a1.4,1.4,0,0,1-1.39,1.4h-46a1.39,1.39,0,0,1-1.39-1.4V215a1.39,1.39,0,0,1,1.39-1.39h46a1.39,1.39,0,0,1,1.39,1.39Z"/><circle class="cls-12" cx="819.84" cy="326.86" r="35.64"/><polygon class="cls-2" points="825.08 323.64 822.75 323.64 813.06 323.64 813.86 327.26 822.74 327.26 825.08 327.26 828.21 327.26 829.17 323.64 825.08 323.64"/><path class="cls-2" d="M814.14,336a3.64,3.64,0,1,0,3.64,3.64A3.64,3.64,0,0,0,814.14,336Z"/><path class="cls-2" d="M827.83,336a3.64,3.64,0,1,0,3.64,3.64A3.64,3.64,0,0,0,827.83,336Z"/><path class="cls-2" d="M837.06,314.93a1.62,1.62,0,0,0-.52-.08,1.8,1.8,0,0,0-1.73,1.28l-.24.81H807.95l-1.37-5.13a1.8,1.8,0,0,0-1.75-1.37h-9.3a1.8,1.8,0,0,0,0,3.61h7.88l4.68,18.53a1.81,1.81,0,0,0,1.75,1.38h22.06a1.81,1.81,0,0,0,1.73-1.29l4.64-15.5a1.79,1.79,0,0,0-1.21-2.24M830.67,330l-.11.37h-19.3l-2.42-9.81h24.65Z"/><path class="cls-36" d="M232.79,459.24H110.36a12.25,12.25,0,0,0-12.25,12.25V549a12.25,12.25,0,0,0,12.25,12.25H232.79Z"/><path class="cls-37" d="M139.38,459.24v76.63c0,6.58-10.21,6.58-10.21,0V459.24H110.36a12.25,12.25,0,0,0-12.25,12.25V549a12.25,12.25,0,0,0,12.25,12.25h38.17v-102Z"/><path class="cls-35" d="M197.11,428.46a9.45,9.45,0,0,0-9.45-9.45h-137a9.45,9.45,0,0,0-9.44,9.45v80a9.44,9.44,0,0,0,9.44,9.44h137a9.45,9.45,0,0,0,9.45-9.44Z"/><rect class="cls-14" x="41.24" y="493.85" width="155.87" height="13.63"/><rect class="cls-34" x="50.13" y="455.88" width="110.64" height="14.59"/><rect class="cls-34" x="50.13" y="475.63" width="110.64" height="3.56"/><rect class="cls-34" x="50.13" y="446.97" width="55.32" height="4.34"/><rect class="cls-34" x="50.13" y="439.99" width="55.32" height="4.34"/><path class="cls-36" d="M273.76,459.24h-125a12.25,12.25,0,0,0-12.25,12.25V549a12.25,12.25,0,0,0,12.25,12.25h125A12.25,12.25,0,0,0,286,549V471.49A12.25,12.25,0,0,0,273.76,459.24Z"/><path class="cls-37" d="M166.68,459.24h-18a12.25,12.25,0,0,0-12.25,12.25V549a12.25,12.25,0,0,0,12.25,12.25h18Z"/><circle class="cls-3" cx="152.72" cy="479.19" r="5.32"/><path class="cls-14" d="M644.79,652.82H823.86a10.51,10.51,0,0,1,10.51,10.51v66.48a10.51,10.51,0,0,1-10.51,10.51H644.79a10.5,10.5,0,0,1-10.5-10.5V663.33A10.5,10.5,0,0,1,644.79,652.82Z"/><path class="cls-36" d="M644.79,645.31H823.86a10.5,10.5,0,0,1,10.5,10.5V722.3a10.51,10.51,0,0,1-10.51,10.51H644.79a10.51,10.51,0,0,1-10.51-10.51V655.82A10.5,10.5,0,0,1,644.79,645.31Z"/><circle class="cls-34" cx="655.91" cy="712.96" r="5.76"/><circle class="cls-3" cx="674.78" cy="712.96" r="5.76"/><polygon class="cls-38" points="760.78 541.03 669.79 541.03 669.79 685.12 798.86 685.12 798.86 579.11 760.78 541.03"/><polygon class="cls-33" points="760.78 541.03 669.79 541.03 669.79 685.12 798.86 685.12 798.86 579.11 760.78 579.11 760.78 541.03"/><rect class="cls-12" x="680.93" y="583.65" width="48.46" height="3.22"/><rect class="cls-12" x="680.93" y="596.83" width="107.08" height="3.22"/><rect class="cls-12" x="680.93" y="604.14" width="107.08" height="3.22"/><rect class="cls-12" x="680.93" y="611.46" width="107.08" height="3.22"/><rect class="cls-12" x="680.93" y="618.78" width="107.08" height="3.22"/><rect class="cls-12" x="680.93" y="626.11" width="107.08" height="3.22"/><rect class="cls-12" x="680.93" y="633.44" width="107.08" height="3.22"/><rect class="cls-12" x="680.93" y="640.75" width="107.08" height="3.22"/><rect class="cls-12" x="680.93" y="648.08" width="107.08" height="3.22"/><rect class="cls-12" x="680.93" y="655.36" width="107.08" height="3.22"/><rect class="cls-12" x="680.93" y="662.68" width="107.08" height="3.22"/><rect class="cls-12" x="680.93" y="670" width="107.08" height="3.22"/><rect class="cls-34" x="669.79" y="541.03" width="90.96" height="7.57"/><path class="cls-27" d="M308.3,164.85a44.11,44.11,0,0,0-44.41,43.82C263.74,233,307.48,290,307.48,290s44.49-56.44,44.65-80.8A44.11,44.11,0,0,0,308.3,164.85ZM308,216.1a13.71,13.71,0,1,1,13.81-13.62A13.71,13.71,0,0,1,308,216.1Z"/><rect class="cls-39" x="777.12" y="307.22" width="84.33" height="68.78"/><polygon class="cls-40" points="856.03 296.26 855.95 296.26 855.9 296.13 819.29 296.2 782.67 296.13 782.63 296.26 782.55 296.26 777.11 307.2 861.46 307.2 856.03 296.26"/><rect class="cls-41" x="813.39" y="307.22" width="11.79" height="28.52"/><polygon class="cls-42" points="823.56 296.19 822.8 296.19 815.78 296.19 815.01 296.19 813.39 307.2 825.18 307.2 823.56 296.19"/><rect class="cls-43" x="836.91" y="368.73" width="19.61" height="3.86"/><polygon class="cls-43" points="845.58 355.49 842.43 352.29 839.23 355.49 840.21 355.49 840.21 367.63 844.6 367.63 844.6 355.49 845.58 355.49"/><polygon class="cls-43" points="854.19 358.5 851.83 356.09 849.42 358.5 850.16 358.5 850.16 367.63 853.46 367.63 853.46 358.5 854.19 358.5"/><rect class="cls-43" x="780.11" y="312.64" width="13.47" height="2.58"/><rect class="cls-43" x="795.96" y="312.64" width="10.3" height="2.58"/><rect class="cls-43" x="780.11" y="318" width="7.53" height="2.58"/><rect class="cls-43" x="798.73" y="318" width="7.53" height="2.58"/><rect class="cls-43" x="789.42" y="318" width="7.53" height="2.58"/><rect class="cls-39" x="793.72" y="264.16" width="51.14" height="41.71"/><polygon class="cls-40" points="841.57 257.51 841.51 257.51 841.49 257.44 819.29 257.48 797.08 257.44 797.06 257.51 797.01 257.51 793.71 264.15 844.86 264.15 841.57 257.51"/><rect class="cls-41" x="815.71" y="264.16" width="7.15" height="17.29"/><polygon class="cls-42" points="821.88 257.47 821.42 257.47 817.16 257.47 816.7 257.47 815.71 264.15 822.86 264.15 821.88 257.47"/><rect class="cls-43" x="829.97" y="301.46" width="11.89" height="2.34"/><polygon class="cls-43" points="835.23 293.43 833.32 291.49 831.38 293.43 831.97 293.43 831.97 300.79 834.63 300.79 834.63 293.43 835.23 293.43"/><polygon class="cls-43" points="840.45 295.25 839.02 293.79 837.56 295.25 838 295.25 838 300.79 840.01 300.79 840.01 295.25 840.45 295.25"/><rect class="cls-43" x="795.53" y="267.45" width="8.17" height="1.56"/><rect class="cls-43" x="805.14" y="267.45" width="6.25" height="1.56"/><rect class="cls-43" x="795.53" y="270.69" width="4.57" height="1.56"/><rect class="cls-43" x="806.82" y="270.69" width="4.57" height="1.56"/><rect class="cls-43" x="801.18" y="270.69" width="4.57" height="1.56"/></g></svg>