<?xml version="1.0" encoding="iso-8859-1"?>
<!-- Generator: Adobe Illustrator 19.0.0, SVG Export Plug-In . SVG Version: 6.00 Build 0)  -->
<svg version="1.1" id="Capa_1" xmlns="http://www.w3.org/2000/svg" xmlns:xlink="http://www.w3.org/1999/xlink" x="0px" y="0px"
	 viewBox="0 0 464 464" style="enable-background:new 0 0 464 464;" xml:space="preserve">
<g>
	<path style="fill:#D2DCF0;" d="M440,56H24C10.745,56,0,66.745,0,80v304c0,13.255,10.745,24,24,24h416c13.255,0,24-10.745,24-24V80
		C464,66.745,453.255,56,440,56z M400,72h8c4.418,0,8,3.582,8,8s-3.582,8-8,8h-8c-4.418,0-8-3.582-8-8S395.582,72,400,72z M176,72
		h192c4.418,0,8,3.582,8,8s-3.582,8-8,8H176c-4.418,0-8-3.582-8-8S171.582,72,176,72z M136,72h8c4.418,0,8,3.582,8,8s-3.582,8-8,8
		h-8c-4.418,0-8-3.582-8-8S131.582,72,136,72z M104,72h8c4.418,0,8,3.582,8,8s-3.582,8-8,8h-8c-4.418,0-8-3.582-8-8
		S99.582,72,104,72z M72,72c4.418,0,8,3.582,8,8s-3.582,8-8,8s-8-3.582-8-8S67.582,72,72,72z M48,72c4.418,0,8,3.582,8,8
		s-3.582,8-8,8s-8-3.582-8-8S43.582,72,48,72z M24,72c4.418,0,8,3.582,8,8s-3.582,8-8,8s-8-3.582-8-8S19.582,72,24,72z M448,384
		c0,4.418-3.582,8-8,8H24c-4.418,0-8-3.582-8-8V112c0-4.418,3.582-8,8-8h416c4.418,0,8,3.582,8,8V384z M440,88h-8
		c-4.418,0-8-3.582-8-8s3.582-8,8-8h8c4.418,0,8,3.582,8,8S444.418,88,440,88z"/>
	<path style="fill:#FF6469;" d="M440,104H24c-4.418,0-8,3.582-8,8v272c0,4.418,3.582,8,8,8h416c4.418,0,8-3.582,8-8V112
		C448,107.582,444.418,104,440,104z M416,368H125.842c-2.768,4.778-7.923,8-13.842,8H96c-5.919,0-11.074-3.222-13.842-8H66.219H48
		c-4.418,0-8-3.582-8-8s3.582-8,8-8h18.219h15.939c2.768-4.778,7.923-8,13.842-8h16c5.919,0,11.074,3.222,13.842,8H416
		c4.418,0,8,3.582,8,8S420.418,368,416,368z M424,320c0,4.418-3.582,8-8,8H48c-4.418,0-8-3.582-8-8V136c0-4.418,3.582-8,8-8h368
		c4.418,0,8,3.582,8,8V320z"/>
	<circle style="fill:#FF6469;" cx="24" cy="80" r="8"/>
	<circle style="fill:#FFE169;" cx="48" cy="80" r="8"/>
	<circle style="fill:#87E1AA;" cx="72" cy="80" r="8"/>
	<path style="fill:#E4EAF6;" d="M104,88h8c4.418,0,8-3.582,8-8s-3.582-8-8-8h-8c-4.418,0-8,3.582-8,8S99.582,88,104,88z"/>
	<path style="fill:#E4EAF6;" d="M136,88h8c4.418,0,8-3.582,8-8s-3.582-8-8-8h-8c-4.418,0-8,3.582-8,8S131.582,88,136,88z"/>
	<path style="fill:#E4EAF6;" d="M400,88h8c4.418,0,8-3.582,8-8s-3.582-8-8-8h-8c-4.418,0-8,3.582-8,8S395.582,88,400,88z"/>
	<path style="fill:#E4EAF6;" d="M440,72h-8c-4.418,0-8,3.582-8,8s3.582,8,8,8h8c4.418,0,8-3.582,8-8S444.418,72,440,72z"/>
	<path style="fill:#E4EAF6;" d="M176,88h192c4.418,0,8-3.582,8-8s-3.582-8-8-8H176c-4.418,0-8,3.582-8,8S171.582,88,176,88z"/>
	<path style="fill:#D2555F;" d="M66.219,352H48c-4.418,0-8,3.582-8,8s3.582,8,8,8h18.219c-1.375-2.361-2.219-5.071-2.219-8
		S64.845,354.362,66.219,352z"/>
	<path style="fill:#D2555F;" d="M416,352H125.842c1.364,2.355,2.158,5.082,2.158,8s-0.794,5.645-2.158,8H416c4.418,0,8-3.582,8-8
		S420.418,352,416,352z"/>
	<path style="fill:#BE4650;" d="M82.158,352H66.219c-1.375,2.362-2.219,5.071-2.219,8s0.845,5.639,2.219,8h15.939
		c-1.364-2.355-2.158-5.082-2.158-8S80.794,354.355,82.158,352z"/>
	<path style="fill:#FFC85A;" d="M96,360c0-8.836,7.163-16,16-16H96c-5.919,0-11.074,3.222-13.842,8
		c-1.364,2.355-2.158,5.082-2.158,8s0.794,5.645,2.158,8c2.768,4.778,7.923,8,13.842,8h16C103.163,376,96,368.836,96,360z"/>
	<path style="fill:#FFDC69;" d="M125.842,352c-2.768-4.778-7.923-8-13.842-8c-8.837,0-16,7.164-16,16s7.163,16,16,16
		c5.919,0,11.074-3.222,13.842-8c1.364-2.355,2.158-5.082,2.158-8S127.206,354.355,125.842,352z"/>
	<path style="fill:#FFDC69;" d="M416,128H48c-4.418,0-8,3.582-8,8v184c0,4.418,3.582,8,8,8h368c4.418,0,8-3.582,8-8V136
		C424,131.582,420.418,128,416,128z M281.507,236.663l-74.68,42.586c-6.29,3.587-13.959-1.173-13.959-8.664v-85.172
		c0-7.491,7.669-12.25,13.959-8.664l74.68,42.586C288.066,223.077,288.066,232.923,281.507,236.663z"/>
	<path style="fill:#D2555F;" d="M281.507,219.337l-74.68-42.586c-6.29-3.587-13.959,1.173-13.959,8.664v85.172
		c0,7.491,7.669,12.25,13.959,8.664l74.68-42.586C288.066,232.923,288.066,223.077,281.507,219.337z"/>
</g>
<g>
</g>
<g>
</g>
<g>
</g>
<g>
</g>
<g>
</g>
<g>
</g>
<g>
</g>
<g>
</g>
<g>
</g>
<g>
</g>
<g>
</g>
<g>
</g>
<g>
</g>
<g>
</g>
<g>
</g>
</svg>
