<?xml version="1.0" encoding="iso-8859-1"?>
<!-- Generator: Adobe Illustrator 19.0.0, SVG Export Plug-In . SVG Version: 6.00 Build 0)  -->
<svg version="1.1" id="Capa_1" xmlns="http://www.w3.org/2000/svg" xmlns:xlink="http://www.w3.org/1999/xlink" x="0px" y="0px"
	 viewBox="0 0 464 464" style="enable-background:new 0 0 464 464;" xml:space="preserve">
<g>
	<path style="fill:#D2DCF0;" d="M440,56H24C10.745,56,0,66.745,0,80v304c0,13.255,10.745,24,24,24h416c13.255,0,24-10.745,24-24V80
		C464,66.745,453.255,56,440,56z M400,72h8c4.418,0,8,3.582,8,8s-3.582,8-8,8h-8c-4.418,0-8-3.582-8-8S395.582,72,400,72z M176,72
		h192c4.418,0,8,3.582,8,8s-3.582,8-8,8H176c-4.418,0-8-3.582-8-8S171.582,72,176,72z M136,72h8c4.418,0,8,3.582,8,8s-3.582,8-8,8
		h-8c-4.418,0-8-3.582-8-8S131.582,72,136,72z M104,72h8c4.418,0,8,3.582,8,8s-3.582,8-8,8h-8c-4.418,0-8-3.582-8-8
		S99.582,72,104,72z M72,72c4.418,0,8,3.582,8,8s-3.582,8-8,8s-8-3.582-8-8S67.582,72,72,72z M48,72c4.418,0,8,3.582,8,8
		s-3.582,8-8,8s-8-3.582-8-8S43.582,72,48,72z M24,72c4.418,0,8,3.582,8,8s-3.582,8-8,8s-8-3.582-8-8S19.582,72,24,72z M448,384
		c0,4.418-3.582,8-8,8H24c-4.418,0-8-3.582-8-8V112c0-4.418,3.582-8,8-8h416c4.418,0,8,3.582,8,8V384z M440,88h-8
		c-4.418,0-8-3.582-8-8s3.582-8,8-8h8c4.418,0,8,3.582,8,8S444.418,88,440,88z"/>
	<path style="fill:#FFFFFF;" d="M440,104H24c-4.418,0-8,3.582-8,8v272c0,4.418,3.582,8,8,8h416c4.418,0,8-3.582,8-8V112
		C448,107.582,444.418,104,440,104z M256,128h112c4.418,0,8,3.582,8,8c0,4.418-3.582,8-8,8H256c-4.418,0-8-3.582-8-8
		C248,131.582,251.582,128,256,128z M248,168c0-4.418,3.582-8,8-8h160c4.418,0,8,3.582,8,8l0,0c0,4.418-3.582,8-8,8H256
		C251.582,176,248,172.418,248,168L248,168z M424,200c0,4.418-3.582,8-8,8h-16c-4.418,0-8-3.582-8-8s3.582-8,8-8h16
		C420.418,192,424,195.582,424,200z M376,200c0,4.418-3.582,8-8,8h-16c-4.418,0-8-3.582-8-8c0-4.418,3.582-8,8-8h16
		C372.418,192,376,195.582,376,200z M328,200c0,4.418-3.582,8-8,8h-16c-4.418,0-8-3.582-8-8s3.582-8,8-8h16
		C324.418,192,328,195.582,328,200z M280,200c0,4.418-3.582,8-8,8h-16c-4.418,0-8-3.582-8-8c0-4.418,3.582-8,8-8h16
		C276.418,192,280,195.582,280,200z M256,224h136c4.418,0,8,3.582,8,8s-3.582,8-8,8H256c-4.418,0-8-3.582-8-8S251.582,224,256,224z
		 M56,368L56,368c-4.418,0-8-3.582-8-8s3.582-8,8-8h0c4.418,0,8,3.582,8,8S60.418,368,56,368z M64,328c0,4.418-3.582,8-8,8h0
		c-4.418,0-8-3.582-8-8V184c0-4.418,3.582-8,8-8h0c4.418,0,8,3.582,8,8V328z M88,368L88,368c-4.418,0-8-3.582-8-8s3.582-8,8-8h0
		c4.418,0,8,3.582,8,8S92.418,368,88,368z M96,328c0,4.418-3.582,8-8,8h0c-4.418,0-8-3.582-8-8V136c0-4.418,3.582-8,8-8h0
		c4.418,0,8,3.582,8,8V328z M120,368L120,368c-4.418,0-8-3.582-8-8s3.582-8,8-8h0c4.418,0,8,3.582,8,8S124.418,368,120,368z
		 M128,328c0,4.418-3.582,8-8,8h0c-4.418,0-8-3.582-8-8V224c0-4.418,3.582-8,8-8h0c4.418,0,8,3.582,8,8V328z M152,368
		c-4.418,0-8-3.582-8-8s3.582-8,8-8s8,3.582,8,8S156.418,368,152,368z M160,328c0,4.418-3.582,8-8,8s-8-3.582-8-8V168
		c0-4.418,3.582-8,8-8s8,3.582,8,8V328z M184,368c-4.418,0-8-3.582-8-8s3.582-8,8-8s8,3.582,8,8S188.418,368,184,368z M192,328
		c0,4.418-3.582,8-8,8s-8-3.582-8-8v-48c0-4.418,3.582-8,8-8s8,3.582,8,8V328z M216,368c-4.418,0-8-3.582-8-8s3.582-8,8-8
		s8,3.582,8,8S220.418,368,216,368z M224,328c0,4.418-3.582,8-8,8s-8-3.582-8-8v-80c0-4.418,3.582-8,8-8s8,3.582,8,8V328z M392,368
		H256c-4.418,0-8-3.582-8-8s3.582-8,8-8h136c4.418,0,8,3.582,8,8S396.418,368,392,368z M424,336H256c-4.418,0-8-3.582-8-8
		s3.582-8,8-8h168c4.418,0,8,3.582,8,8S428.418,336,424,336z M248,296c0-4.418,3.582-8,8-8h152c4.418,0,8,3.582,8,8
		c0,4.418-3.582,8-8,8H256C251.582,304,248,300.418,248,296z M424,272H256c-4.418,0-8-3.582-8-8s3.582-8,8-8h168
		c4.418,0,8,3.582,8,8S428.418,272,424,272z"/>
	<circle style="fill:#FF6469;" cx="24" cy="80" r="8"/>
	<circle style="fill:#FFE169;" cx="48" cy="80" r="8"/>
	<circle style="fill:#87E1AA;" cx="72" cy="80" r="8"/>
	<path style="fill:#E4EAF6;" d="M104,88h8c4.418,0,8-3.582,8-8s-3.582-8-8-8h-8c-4.418,0-8,3.582-8,8S99.582,88,104,88z"/>
	<path style="fill:#E4EAF6;" d="M136,88h8c4.418,0,8-3.582,8-8s-3.582-8-8-8h-8c-4.418,0-8,3.582-8,8S131.582,88,136,88z"/>
	<path style="fill:#E4EAF6;" d="M400,88h8c4.418,0,8-3.582,8-8s-3.582-8-8-8h-8c-4.418,0-8,3.582-8,8S395.582,88,400,88z"/>
	<path style="fill:#E4EAF6;" d="M440,72h-8c-4.418,0-8,3.582-8,8s3.582,8,8,8h8c4.418,0,8-3.582,8-8S444.418,72,440,72z"/>
	<path style="fill:#E4EAF6;" d="M176,88h192c4.418,0,8-3.582,8-8s-3.582-8-8-8H176c-4.418,0-8,3.582-8,8S171.582,88,176,88z"/>
	<path style="fill:#FFE169;" d="M56,176L56,176c-4.418,0-8,3.582-8,8v144c0,4.418,3.582,8,8,8h0c4.418,0,8-3.582,8-8V184
		C64,179.582,60.418,176,56,176z"/>
	<path style="fill:#D2DCF0;" d="M56,352L56,352c-4.418,0-8,3.582-8,8s3.582,8,8,8h0c4.418,0,8-3.582,8-8S60.418,352,56,352z"/>
	<path style="fill:#FF6469;" d="M88,128L88,128c-4.418,0-8,3.582-8,8v192c0,4.418,3.582,8,8,8h0c4.418,0,8-3.582,8-8V136
		C96,131.582,92.418,128,88,128z"/>
	<path style="fill:#D2DCF0;" d="M88,352L88,352c-4.418,0-8,3.582-8,8s3.582,8,8,8h0c4.418,0,8-3.582,8-8S92.418,352,88,352z"/>
	<path style="fill:#B4E173;" d="M120,216L120,216c-4.418,0-8,3.582-8,8v104c0,4.418,3.582,8,8,8h0c4.418,0,8-3.582,8-8V224
		C128,219.582,124.418,216,120,216z"/>
	<path style="fill:#D2DCF0;" d="M120,352L120,352c-4.418,0-8,3.582-8,8s3.582,8,8,8h0c4.418,0,8-3.582,8-8S124.418,352,120,352z"/>
	<path style="fill:#A0DCF0;" d="M152,160c-4.418,0-8,3.582-8,8v160c0,4.418,3.582,8,8,8s8-3.582,8-8V168
		C160,163.582,156.418,160,152,160z"/>
	<circle style="fill:#D2DCF0;" cx="152" cy="360" r="8"/>
	<path style="fill:#C3B4FA;" d="M184,272c-4.418,0-8,3.582-8,8v48c0,4.418,3.582,8,8,8s8-3.582,8-8v-48
		C192,275.582,188.418,272,184,272z"/>
	<circle style="fill:#D2DCF0;" cx="184" cy="360" r="8"/>
	<path style="fill:#FFAFD7;" d="M216,240c-4.418,0-8,3.582-8,8v80c0,4.418,3.582,8,8,8s8-3.582,8-8v-80
		C224,243.582,220.418,240,216,240z"/>
	<circle style="fill:#D2DCF0;" cx="216" cy="360" r="8"/>
	<path style="fill:#FF6469;" d="M256,144h112c4.418,0,8-3.582,8-8c0-4.418-3.582-8-8-8H256c-4.418,0-8,3.582-8,8
		C248,140.418,251.582,144,256,144z"/>
	<path style="fill:#FF6469;" d="M256,176h160c4.418,0,8-3.582,8-8l0,0c0-4.418-3.582-8-8-8H256c-4.418,0-8,3.582-8,8l0,0
		C248,172.418,251.582,176,256,176z"/>
	<path style="fill:#D2DCF0;" d="M256,192c-4.418,0-8,3.582-8,8c0,4.418,3.582,8,8,8h16c4.418,0,8-3.582,8-8c0-4.418-3.582-8-8-8H256
		z"/>
	<path style="fill:#D2DCF0;" d="M304,192c-4.418,0-8,3.582-8,8s3.582,8,8,8h16c4.418,0,8-3.582,8-8s-3.582-8-8-8H304z"/>
	<path style="fill:#D2DCF0;" d="M352,192c-4.418,0-8,3.582-8,8c0,4.418,3.582,8,8,8h16c4.418,0,8-3.582,8-8c0-4.418-3.582-8-8-8H352
		z"/>
	<path style="fill:#D2DCF0;" d="M416,192h-16c-4.418,0-8,3.582-8,8s3.582,8,8,8h16c4.418,0,8-3.582,8-8S420.418,192,416,192z"/>
	<path style="fill:#AFBBD0;" d="M256,240h136c4.418,0,8-3.582,8-8s-3.582-8-8-8H256c-4.418,0-8,3.582-8,8S251.582,240,256,240z"/>
	<path style="fill:#AFBBD0;" d="M424,256H256c-4.418,0-8,3.582-8,8s3.582,8,8,8h168c4.418,0,8-3.582,8-8S428.418,256,424,256z"/>
	<path style="fill:#AFBBD0;" d="M256,304h152c4.418,0,8-3.582,8-8c0-4.418-3.582-8-8-8H256c-4.418,0-8,3.582-8,8
		C248,300.418,251.582,304,256,304z"/>
	<path style="fill:#AFBBD0;" d="M424,320H256c-4.418,0-8,3.582-8,8s3.582,8,8,8h168c4.418,0,8-3.582,8-8S428.418,320,424,320z"/>
	<path style="fill:#AFBBD0;" d="M392,352H256c-4.418,0-8,3.582-8,8s3.582,8,8,8h136c4.418,0,8-3.582,8-8S396.418,352,392,352z"/>
</g>
<g>
</g>
<g>
</g>
<g>
</g>
<g>
</g>
<g>
</g>
<g>
</g>
<g>
</g>
<g>
</g>
<g>
</g>
<g>
</g>
<g>
</g>
<g>
</g>
<g>
</g>
<g>
</g>
<g>
</g>
</svg>
