<?xml version="1.0" encoding="iso-8859-1"?>
<!-- Generator: Adobe Illustrator 19.0.0, SVG Export Plug-In . SVG Version: 6.00 Build 0)  -->
<svg version="1.1" id="Capa_1" xmlns="http://www.w3.org/2000/svg" xmlns:xlink="http://www.w3.org/1999/xlink" x="0px" y="0px"
	 viewBox="0 0 464 464" style="enable-background:new 0 0 464 464;" xml:space="preserve">
<g>
	<path style="fill:#D2DCF0;" d="M440,56H24C10.745,56,0,66.745,0,80v304c0,13.255,10.745,24,24,24h416c13.255,0,24-10.745,24-24V80
		C464,66.745,453.255,56,440,56z M400,72h8c4.418,0,8,3.582,8,8s-3.582,8-8,8h-8c-4.418,0-8-3.582-8-8S395.582,72,400,72z M176,72
		h192c4.418,0,8,3.582,8,8s-3.582,8-8,8H176c-4.418,0-8-3.582-8-8S171.582,72,176,72z M136,72h8c4.418,0,8,3.582,8,8s-3.582,8-8,8
		h-8c-4.418,0-8-3.582-8-8S131.582,72,136,72z M104,72h8c4.418,0,8,3.582,8,8s-3.582,8-8,8h-8c-4.418,0-8-3.582-8-8
		S99.582,72,104,72z M72,72c4.418,0,8,3.582,8,8s-3.582,8-8,8s-8-3.582-8-8S67.582,72,72,72z M48,72c4.418,0,8,3.582,8,8
		s-3.582,8-8,8s-8-3.582-8-8S43.582,72,48,72z M24,72c4.418,0,8,3.582,8,8s-3.582,8-8,8s-8-3.582-8-8S19.582,72,24,72z M448,152v232
		c0,4.418-3.582,8-8,8H232H24h-7c-0.552,0-1-0.448-1-1v-7V152v-40v-7c0-0.552,0.448-1,1-1h7h208h208c4.418,0,8,3.582,8,8V152z
		 M440,88h-8c-4.418,0-8-3.582-8-8s3.582-8,8-8h8c4.418,0,8,3.582,8,8S444.418,88,440,88z"/>
	<path style="fill:#FFFFFF;" d="M232,187.138v24v16v96v16v24V392h208c4.418,0,8-3.582,8-8V152H232V187.138z M352,192v-8
		c0-4.418,3.582-8,8-8h56c4.418,0,8,3.582,8,8v8v64c0,4.418-3.582,8-8,8h-56c-4.418,0-8-3.582-8-8V192z M256,192v-8
		c0-4.418,3.582-8,8-8h56c4.418,0,8,3.582,8,8v8v64c0,4.418-3.582,8-8,8h-56c-4.418,0-8-3.582-8-8V192z M264,288h8h144
		c4.418,0,8,3.582,8,8v64c0,4.418-3.582,8-8,8H272h-8c-4.418,0-8-3.582-8-8v-64C256,291.582,259.582,288,264,288z"/>
	<circle style="fill:#FF6469;" cx="24" cy="80" r="8"/>
	<circle style="fill:#FFE169;" cx="48" cy="80" r="8"/>
	<circle style="fill:#87E1AA;" cx="72" cy="80" r="8"/>
	<path style="fill:#E4EAF6;" d="M104,88h8c4.418,0,8-3.582,8-8s-3.582-8-8-8h-8c-4.418,0-8,3.582-8,8S99.582,88,104,88z"/>
	<path style="fill:#E4EAF6;" d="M136,88h8c4.418,0,8-3.582,8-8s-3.582-8-8-8h-8c-4.418,0-8,3.582-8,8S131.582,88,136,88z"/>
	<path style="fill:#E4EAF6;" d="M400,88h8c4.418,0,8-3.582,8-8s-3.582-8-8-8h-8c-4.418,0-8,3.582-8,8S395.582,88,400,88z"/>
	<path style="fill:#E4EAF6;" d="M440,72h-8c-4.418,0-8,3.582-8,8s3.582,8,8,8h8c4.418,0,8-3.582,8-8S444.418,72,440,72z"/>
	<path style="fill:#E4EAF6;" d="M176,88h192c4.418,0,8-3.582,8-8s-3.582-8-8-8H176c-4.418,0-8,3.582-8,8S171.582,88,176,88z"/>
	<path style="fill:#FF6469;" d="M440,104H232v48h216v-40C448,107.582,444.418,104,440,104z M288,136h-32c-4.418,0-8-3.582-8-8
		s3.582-8,8-8h32c4.418,0,8,3.582,8,8S292.418,136,288,136z M352,136h-32c-4.418,0-8-3.582-8-8s3.582-8,8-8h32c4.418,0,8,3.582,8,8
		S356.418,136,352,136z M416,136h-32c-4.418,0-8-3.582-8-8s3.582-8,8-8h32c4.418,0,8,3.582,8,8S420.418,136,416,136z"/>
	<path style="fill:#D2555F;" d="M288,120h-32c-4.418,0-8,3.582-8,8s3.582,8,8,8h32c4.418,0,8-3.582,8-8S292.418,120,288,120z"/>
	<path style="fill:#D2555F;" d="M352,120h-32c-4.418,0-8,3.582-8,8s3.582,8,8,8h32c4.418,0,8-3.582,8-8S356.418,120,352,120z"/>
	<path style="fill:#D2555F;" d="M416,120h-32c-4.418,0-8,3.582-8,8s3.582,8,8,8h32c4.418,0,8-3.582,8-8S420.418,120,416,120z"/>
	<path style="fill:#DEE3ED;" d="M264,264h56c4.418,0,8-3.582,8-8v-64c0,4.418-3.582,8-8,8h-56c-4.418,0-8-3.582-8-8v64
		C256,260.418,259.582,264,264,264z"/>
	<path style="fill:#DEE3ED;" d="M360,264h56c4.418,0,8-3.582,8-8v-64c0,4.418-3.582,8-8,8h-56c-4.418,0-8-3.582-8-8v64
		C352,260.418,355.582,264,360,264z"/>
	<path style="fill:#FF969B;" d="M264,200h56c4.418,0,8-3.582,8-8v-8c0-4.418-3.582-8-8-8h-56c-4.418,0-8,3.582-8,8v8
		C256,196.418,259.582,200,264,200z"/>
	<path style="fill:#A0DCF0;" d="M360,200h56c4.418,0,8-3.582,8-8v-8c0-4.418-3.582-8-8-8h-56c-4.418,0-8,3.582-8,8v8
		C352,196.418,355.582,200,360,200z"/>
	<path style="fill:#DEE3ED;" d="M280,296v64c0,4.418-3.582,8-8,8h144c4.418,0,8-3.582,8-8v-64c0-4.418-3.582-8-8-8H272
		C276.418,288,280,291.582,280,296z"/>
	<path style="fill:#91E6BE;" d="M264,368h8c4.418,0,8-3.582,8-8v-64c0-4.418-3.582-8-8-8h-8c-4.418,0-8,3.582-8,8v64
		C256,364.418,259.582,368,264,368z"/>
	<path style="fill:#464655;" d="M184,275.138c0,26.51,21.49,48,48,48v-96C205.49,227.138,184,248.628,184,275.138z"/>
	<path style="fill:#464655;" d="M210.498,360.381l-5.714,9.897c-2.209,3.826-7.102,5.137-10.928,2.928l-27.713-16
		c-3.826-2.209-5.137-7.102-2.928-10.929l5.696-9.865c-10.014-10.309-17.484-23.058-21.511-37.274H136c-4.418,0-8-3.582-8-8v-32
		c0-4.418,3.582-8,8-8h11.399c4.026-14.217,11.497-26.965,21.51-37.273l-5.694-9.862c-2.209-3.827-0.898-8.72,2.928-10.929
		l27.713-16c3.826-2.209,8.719-0.898,10.928,2.928l5.712,9.895c6.895-1.735,14.072-2.758,21.504-2.758V152v-48H24h-7
		c-0.552,0-1,0.448-1,1v7v40v232v7c0,0.552,0.448,1,1,1h7h208v-28.862C224.568,363.138,217.391,362.116,210.498,360.381z
		 M118.03,217.35c-4.196,2.777-8.928,4.809-14.03,5.844V232c0,4.419-3.582,8.001-8.001,8c-4.418,0-8-3.582-8-8v-8.807
		c-5.104-1.035-9.838-3.067-14.034-5.846l-6.25,6.25c-3.124,3.125-8.189,3.125-11.314,0c-3.124-3.124-3.124-8.189,0-11.313
		l6.25-6.251c-2.778-4.195-4.81-8.93-5.846-14.033H48c-4.418,0-8-3.582-8-8s3.582-8,8-8h8.806c1.036-5.104,3.067-9.836,5.845-14.031
		l-6.254-6.254c-3.124-3.125-3.124-8.19,0-11.314h0c3.125-3.125,8.189-3.124,11.313,0l6.253,6.253
		c4.197-2.778,8.931-4.811,14.036-5.847v-8.806c0-4.419,3.582-8.001,8.001-8c4.418,0,8,3.582,8,8v8.806
		c5.104,1.036,9.837,3.068,14.033,5.846l6.25-6.25c3.124-3.125,8.189-3.125,11.314,0c3.124,3.124,3.124,8.189,0,11.313l-6.25,6.251
		c2.778,4.195,4.81,8.93,5.846,14.033H144c4.418,0,8,3.582,8,8s-3.582,8-8,8h-8.806c-1.037,5.105-3.068,9.84-5.848,14.037
		l6.248,6.248c3.124,3.125,3.124,8.19,0,11.314h0c-3.124,3.125-8.189,3.124-11.313,0L118.03,217.35z"/>
	<circle style="fill:#464655;" cx="96" cy="184" r="16"/>
	<path style="fill:#707384;" d="M204.783,180.001c-2.209-3.826-7.102-5.137-10.928-2.928l-27.713,16
		c-3.826,2.209-5.137,7.102-2.928,10.929l5.694,9.862c-10.013,10.309-17.483,23.057-21.51,37.273H136c-4.418,0-8,3.582-8,8v32
		c0,4.418,3.582,8,8,8h11.399c4.027,14.217,11.498,26.966,21.511,37.274l-5.696,9.865c-2.209,3.827-0.898,8.72,2.928,10.929
		l27.713,16c3.826,2.209,8.719,0.898,10.928-2.928l5.714-9.897c6.894,1.735,14.07,2.757,21.502,2.757v-24c-35.346,0-64-28.654-64-64
		s28.654-64,64-64v-24c-7.433,0-14.61,1.022-21.504,2.758L204.783,180.001z"/>
	<path style="fill:#9097AA;" d="M168,275.138c0,35.346,28.654,64,64,64v-16c-26.51,0-48-21.49-48-48s21.49-48,48-48v-16
		C196.654,211.138,168,239.792,168,275.138z"/>
	<path style="fill:#707384;" d="M135.593,223.6L135.593,223.6c3.125-3.124,3.125-8.189,0.001-11.314l-6.248-6.248
		c2.779-4.197,4.811-8.932,5.848-14.037H144c4.418,0,8-3.582,8-8s-3.582-8-8-8h-8.806c-1.036-5.104-3.068-9.838-5.846-14.033
		l6.25-6.251c3.124-3.124,3.124-8.189,0-11.313c-3.125-3.125-8.19-3.125-11.314,0l-6.25,6.25c-4.196-2.777-8.93-4.81-14.033-5.846
		v-8.806c0-4.418-3.582-8-8-8c-4.419-0.001-8.001,3.581-8.001,8v8.806c-5.105,1.036-9.839,3.068-14.036,5.847l-6.253-6.253
		c-3.124-3.124-8.189-3.125-11.313,0h0c-3.125,3.124-3.125,8.189,0,11.314l6.254,6.254c-2.777,4.195-4.809,8.928-5.845,14.031H48
		c-4.418,0-8,3.582-8,8s3.582,8,8,8h8.806c1.036,5.104,3.068,9.838,5.846,14.033l-6.25,6.251c-3.124,3.124-3.124,8.189,0,11.313
		c3.125,3.125,8.19,3.125,11.314,0l6.25-6.25c4.196,2.778,8.93,4.811,14.034,5.846V232c0,4.418,3.582,8,8,8
		c4.419,0.001,8.001-3.581,8.001-8v-8.807c5.102-1.035,9.834-3.066,14.03-5.844l6.25,6.25
		C127.404,226.724,132.469,226.725,135.593,223.6z M96,208c-13.255,0-24-10.745-24-24s10.745-24,24-24s24,10.745,24,24
		S109.255,208,96,208z"/>
	<path style="fill:#9097AA;" d="M96,160c-13.255,0-24,10.745-24,24s10.745,24,24,24s24-10.745,24-24S109.255,160,96,160z M96,200
		c-8.836,0-16-7.164-16-16c0-8.837,7.164-16,16-16s16,7.163,16,16C112,192.836,104.836,200,96,200z"/>
</g>
<g>
</g>
<g>
</g>
<g>
</g>
<g>
</g>
<g>
</g>
<g>
</g>
<g>
</g>
<g>
</g>
<g>
</g>
<g>
</g>
<g>
</g>
<g>
</g>
<g>
</g>
<g>
</g>
<g>
</g>
</svg>
