<?xml version="1.0" encoding="iso-8859-1"?>
<!-- Generator: Adobe Illustrator 19.0.0, SVG Export Plug-In . SVG Version: 6.00 Build 0)  -->
<svg version="1.1" id="Capa_1" xmlns="http://www.w3.org/2000/svg" xmlns:xlink="http://www.w3.org/1999/xlink" x="0px" y="0px"
	 viewBox="0 0 464 464" style="enable-background:new 0 0 464 464;" xml:space="preserve">
<g>
	<path style="fill:#464655;" d="M380.413,128.282l-48.595,29.157C331.926,158.28,332,159.13,332,160c0,8.199-4.939,15.237-12,18.325
		V408h64V130.325C382.728,129.769,381.531,129.079,380.413,128.282z"/>
	<path style="fill:#464655;" d="M212,312c0-1.355,0.138-2.679,0.395-3.958l-49.984-34.989c-0.773,0.473-1.573,0.906-2.411,1.272V408
		h64v-77.675C216.939,327.237,212,320.199,212,312z"/>
	<path style="fill:#464655;" d="M247.61,299.515c2.741,3.423,4.39,7.759,4.39,12.485c0,8.199-4.939,15.237-12,18.325V408h64V192.375
		L247.61,299.515z"/>
	<path style="fill:#464655;" d="M440,56H24C10.745,56,0,66.745,0,80v304c0,13.255,10.745,24,24,24h40v-61.675
		c-7.061-3.087-12-10.125-12-18.325c0-11.046,8.954-20,20-20c2.95,0,5.742,0.655,8.263,1.802l52.769-47.492
		c-0.66-1.986-1.032-4.103-1.032-6.31c0-11.046,8.954-20,20-20c11.046,0,20,8.954,20,20c0,1.355-0.138,2.678-0.395,3.958
		l49.984,34.989C224.624,293.09,228.181,292,232,292c0.489,0,0.968,0.039,1.448,0.073l62.941-119.588
		c-2.741-3.423-4.39-7.759-4.39-12.485c0-11.046,8.954-20,20-20c4.324,0,8.316,1.386,11.587,3.718l48.595-29.157
		C372.074,113.721,372,112.87,372,112c0-11.046,8.954-20,20-20c11.046,0,20,8.954,20,20c0,8.199-4.939,15.237-12,18.325V408h40
		c13.255,0,24-10.745,24-24V80C464,66.745,453.255,56,440,56z"/>
	<path style="fill:#464655;" d="M143.737,274.198L90.968,321.69C91.629,323.676,92,325.793,92,328c0,8.199-4.939,15.237-12,18.325
		V408h64V274.325C143.911,274.286,143.826,274.239,143.737,274.198z"/>
	<path style="fill:#707384;" d="M90.968,321.69l52.769-47.492c-5.032-2.289-8.944-6.592-10.706-11.888l-52.769,47.492
		C85.295,312.091,89.207,316.394,90.968,321.69z"/>
	<path style="fill:#707384;" d="M162.411,273.053l49.984,34.989c1.113-5.543,4.528-10.239,9.194-13.094l-49.984-34.989
		C170.491,265.501,167.077,270.198,162.411,273.053z"/>
	<path style="fill:#707384;" d="M247.61,299.515L304,192.375v-14.05c-2.991-1.308-5.596-3.325-7.61-5.84l-62.941,119.588
		C239.174,292.485,244.229,295.293,247.61,299.515z"/>
	<path style="fill:#707384;" d="M331.818,157.439l48.595-29.157c-4.428-3.157-7.507-8.065-8.231-13.721l-48.595,29.157
		C328.015,146.875,331.093,151.784,331.818,157.439z"/>
	<path style="fill:#BE4650;" d="M152,276c-2.846,0-5.549-0.604-8-1.675V408h16V274.325C157.549,275.396,154.846,276,152,276z"/>
	<path style="fill:#FF6469;" d="M143.737,274.198c0.089,0.04,0.173,0.087,0.263,0.126c2.451,1.072,5.154,1.675,8,1.675
		c2.846,0,5.549-0.604,8-1.675c0.838-0.366,1.638-0.799,2.411-1.272c4.666-2.855,8.08-7.551,9.193-13.094
		c0.257-1.28,0.395-2.603,0.395-3.958c0-11.046-8.954-20-20-20c-11.046,0-20,8.954-20,20c0,2.207,0.371,4.324,1.032,6.31
		C134.793,267.606,138.705,271.909,143.737,274.198z"/>
	<path style="fill:#FFAF5A;" d="M72,348c-2.846,0-5.549-0.604-8-1.675V408h16v-61.675C77.549,347.396,74.846,348,72,348z"/>
	<path style="fill:#FFDC69;" d="M80,346.325c7.061-3.087,12-10.125,12-18.325c0-2.207-0.371-4.324-1.032-6.31
		c-1.762-5.297-5.674-9.6-10.706-11.889C77.742,308.655,74.95,308,72,308c-11.046,0-20,8.954-20,20c0,8.199,4.939,15.237,12,18.325
		c2.451,1.072,5.154,1.675,8,1.675C74.846,348,77.549,347.396,80,346.325z"/>
	<path style="fill:#96B95A;" d="M232,332c-2.846,0-5.549-0.604-8-1.675V408h16v-77.675C237.549,331.396,234.846,332,232,332z"/>
	<path style="fill:#B4E173;" d="M212.395,308.042c-0.257,1.28-0.395,2.603-0.395,3.958c0,8.199,4.939,15.237,12,18.325
		c2.451,1.072,5.154,1.675,8,1.675c2.846,0,5.549-0.604,8-1.675c7.061-3.087,12-10.125,12-18.325c0-4.726-1.649-9.062-4.39-12.485
		c-3.382-4.223-8.436-7.031-14.162-7.442c-0.48-0.035-0.959-0.073-1.448-0.073c-3.819,0-7.376,1.09-10.411,2.947
		C216.923,297.802,213.508,302.499,212.395,308.042z"/>
	<path style="fill:#78B9C8;" d="M312,180c-2.846,0-5.549-0.604-8-1.675v14.05V408h16V178.325C317.549,179.396,314.846,180,312,180z"
		/>
	<path style="fill:#A09CFF;" d="M392,132c-2.846,0-5.549-0.604-8-1.675V408h16V130.325C397.549,131.396,394.846,132,392,132z"/>
	<path style="fill:#A0DCF0;" d="M304,178.325c2.451,1.072,5.154,1.675,8,1.675c2.846,0,5.549-0.604,8-1.675
		c7.061-3.087,12-10.125,12-18.325c0-0.87-0.074-1.72-0.182-2.561c-0.725-5.655-3.803-10.564-8.231-13.721
		C320.316,141.386,316.323,140,312,140c-11.046,0-20,8.954-20,20c0,4.726,1.649,9.062,4.39,12.485
		C298.404,175,301.009,177.017,304,178.325z"/>
	<path style="fill:#C3B4FA;" d="M380.413,128.282c1.118,0.797,2.315,1.487,3.587,2.043c2.451,1.072,5.154,1.675,8,1.675
		c2.846,0,5.549-0.604,8-1.675c7.061-3.087,12-10.125,12-18.325c0-11.046-8.954-20-20-20c-11.046,0-20,8.954-20,20
		c0,0.87,0.074,1.721,0.182,2.561C372.907,120.216,375.985,125.125,380.413,128.282z"/>
</g>
<g>
</g>
<g>
</g>
<g>
</g>
<g>
</g>
<g>
</g>
<g>
</g>
<g>
</g>
<g>
</g>
<g>
</g>
<g>
</g>
<g>
</g>
<g>
</g>
<g>
</g>
<g>
</g>
<g>
</g>
</svg>
