<?xml version="1.0" encoding="UTF-8" standalone="no"?>
<svg width="28px" height="28px" viewBox="0 0 28 28" version="1.1" xmlns="http://www.w3.org/2000/svg" xmlns:xlink="http://www.w3.org/1999/xlink">
    <!-- Generator: Sketch 39.1 (31720) - http://www.bohemiancoding.com/sketch -->
    <title>icon-datepicker</title>
    <desc>Created with Sketch.</desc>
    <defs></defs>
    <g id="Page-1" stroke="none" stroke-width="1" fill="none" fill-rule="evenodd">
        <g id="UI-Components" transform="translate(-921.000000, -893.000000)">
            <g id="icon-datepicker" transform="translate(926.000000, 898.000000)">
                <g id="Page-1">
                    <g id="分項額度及共用額度_1440">
                        <g id="Group">
                            <rect id="Rectangle-297" fill="#CBCBCB" x="0" y="0.76" width="18" height="18.24"></rect>
                            <polygon id="Rectangle-297-Copy" fill="#EEF1EF" points="0.5 0.76 17.5 0.76 17.5 7.25915527 17.5 18.24 0.5 18.24"></polygon>
                            <rect id="Rectangle-297" fill="#CDCDCD" x="0" y="0" width="18" height="4.56"></rect>
                            <rect id="Rectangle-299" fill="#C8C8C8" x="0" y="2.28" width="18" height="2.28"></rect>
                            <rect id="Rectangle-301" fill="#9B9B9B" x="0" y="4.56" width="18" height="0.76"></rect>
                            <rect id="Rectangle-302" fill="#BBBBBB" x="2" y="7" width="2" height="2"></rect>
                            <rect id="Rectangle-302-Copy-4" fill="#BBBBBB" x="2" y="11" width="2" height="2"></rect>
                            <rect id="Rectangle-302-Copy" fill="#BBBBBB" x="6" y="7" width="2" height="2"></rect>
                            <rect id="Rectangle-302-Copy-5" fill="#BBBBBB" x="6" y="11" width="2" height="2"></rect>
                            <rect id="Rectangle-302-Copy-2" fill="#BBBBBB" x="10" y="7" width="2" height="2"></rect>
                            <rect id="Rectangle-302-Copy-6" fill="#BBBBBB" x="10" y="11" width="2" height="2"></rect>
                            <rect id="Rectangle-302-Copy-3" fill="#BBBBBB" x="14" y="7" width="2" height="2"></rect>
                            <rect id="Rectangle-302-Copy-7" fill="#BBBBBB" x="14" y="11" width="2" height="2"></rect>
                            <rect id="Rectangle-302-Copy-11" fill="#BBBBBB" x="2" y="15" width="2" height="2"></rect>
                            <rect id="Rectangle-302-Copy-10" fill="#BBBBBB" x="6" y="15" width="2" height="2"></rect>
                            <rect id="Rectangle-302-Copy-9" fill="#BBBBBB" x="10" y="15" width="2" height="2"></rect>
                            <rect id="Rectangle-302-Copy-8" fill="#BBBBBB" x="14" y="15" width="2" height="2"></rect>
                            <path d="M9.75,3.04 C9.75,3.45981587 9.41429197,3.8 9,3.8 C8.58570803,3.8 8.25,3.45981587 8.25,3.04 C8.25,2.62018413 8.58570803,2.28 9,2.28 C9.41429197,2.28 9.75,2.62018413 9.75,3.04" id="Fill-8-Copy" fill="#E4E4E4"></path>
                            <path d="M9.75,2.28 C9.75,2.69981587 9.41429197,3.04 9,3.04 C8.58570803,3.04 8.25,2.69981587 8.25,2.28 C8.25,1.86018413 8.58570803,1.52 9,1.52 C9.41429197,1.52 9.75,1.86018413 9.75,2.28" id="Fill-9-Copy" fill="#707070"></path>
                        </g>
                    </g>
                </g>
            </g>
        </g>
    </g>
</svg>