<?xml version="1.0" encoding="iso-8859-1"?>
<!-- Generator: Adobe Illustrator 19.0.0, SVG Export Plug-In . SVG Version: 6.00 Build 0)  -->
<svg version="1.1" id="Capa_1" xmlns="http://www.w3.org/2000/svg" xmlns:xlink="http://www.w3.org/1999/xlink" x="0px" y="0px"
	 viewBox="0 0 464 464" style="enable-background:new 0 0 464 464;" xml:space="preserve">
<g>
	<path style="fill:#AFE164;" d="M141.023,194.217V18.56C84.597,42.589,39.606,88.491,16.737,145.497l124.286,124.286V194.217z"/>
	<path style="fill:#D7E664;" d="M194.217,141.022L318.503,16.737C291.74,5.965,262.574,0,232,0c-32.314,0-63.054,6.628-90.977,18.56
		v175.657L194.217,141.022z"/>
	<path style="fill:#FFAA64;" d="M445.44,141.022H269.783l53.194,53.195l124.286,124.286C458.035,291.74,464,262.574,464,232
		C464,199.686,457.372,168.946,445.44,141.022z"/>
	<path style="fill:#FF6469;" d="M322.977,269.783V445.44c56.426-24.029,101.417-69.931,124.286-126.937L322.977,194.217V269.783z"/>
	<path style="fill:#C3B4FA;" d="M269.783,322.977L145.497,447.263C172.26,458.034,201.426,464,232,464
		c32.315,0,63.054-6.628,90.977-18.56V269.783L269.783,322.977z"/>
	<path style="fill:#7DD2F0;" d="M194.217,322.977H18.56c24.029,56.426,69.931,101.417,126.937,124.286l124.286-124.286H194.217z"/>
	<path style="fill:#7DE6C3;" d="M141.023,269.783L16.737,145.497C5.965,172.26,0,201.426,0,232c0,32.314,6.628,63.054,18.56,90.977
		h175.657L141.023,269.783z"/>
	<path style="fill:#FFE669;" d="M269.783,141.022H445.44C421.411,84.597,375.509,39.605,318.503,16.737L194.217,141.022H269.783z"/>
</g>
<g>
</g>
<g>
</g>
<g>
</g>
<g>
</g>
<g>
</g>
<g>
</g>
<g>
</g>
<g>
</g>
<g>
</g>
<g>
</g>
<g>
</g>
<g>
</g>
<g>
</g>
<g>
</g>
<g>
</g>
</svg>
