<?xml version="1.0" encoding="UTF-8" standalone="no"?>
<svg width="46px" height="44px" viewBox="0 0 46 44" version="1.1" xmlns="http://www.w3.org/2000/svg" xmlns:xlink="http://www.w3.org/1999/xlink">
    <!-- Generator: Sketch 40.1 (33804) - http://www.bohemiancoding.com/sketch -->
    <title>3 Star Hotel</title>
    <desc>Created with Sketch.</desc>
    <defs></defs>
    <g id="Symbols" stroke="none" stroke-width="1" fill="none" fill-rule="evenodd">
        <g id="3-Star-Hotel">
            <polyline id="Fill-4" fill="#E5E5E5" points="41.2083333 41.8823529 4.79166667 41.8823529 4.79166667 12.3764706 23 5 41.2083333 12.3764706"></polyline>
            <polygon id="Fill-5" fill="#32ABC3" points="30 25.9472513 36.0694444 25.9472513 36.0694444 20 30 20"></polygon>
            <polygon id="Fill-6" fill="#32ABC3" points="20 25.9472513 26.0694444 25.9472513 26.0694444 20 20 20"></polygon>
            <polygon id="Fill-7" fill="#32ABC3" points="10 26 16 26 16 20 10 20"></polygon>
            <polygon id="Fill-8" fill="#32ABC3" points="30.0810185 35.5294118 36.150463 35.5294118 36.150463 30.2352941 30.0810185 30.2352941"></polygon>
            <polygon id="Fill-9" fill="#32ABC3" points="9.84953704 35.5294118 15.9189815 35.5294118 15.9189815 30.2352941 9.84953704 30.2352941"></polygon>
            <polygon id="Fill-10" fill="#632C2C" points="18.9537037 44 27.0462963 44 27.0462963 30.2352941 18.9537037 30.2352941"></polygon>
            <polyline id="Fill-11" fill="#FF6565" points="23 0.885448916 0.479166667 13.3266254 0.479166667 17.4736842 23 5.03250774 45.5208333 17.4736842 45.5208333 13.3266254"></polyline>
            <polygon id="Fill-12" fill="#C3BC64" points="4.79166667 44 41.2083333 44 41.2083333 41.8823529 4.79166667 41.8823529"></polygon>
        </g>
    </g>
</svg>